<?xml version="1.0" encoding="utf-8" standalone="no"?>
<!DOCTYPE svg PUBLIC "-//W3C//DTD SVG 1.1//EN"
  "http://www.w3.org/Graphics/SVG/1.1/DTD/svg11.dtd">
<svg xmlns:xlink="http://www.w3.org/1999/xlink" width="280.813125pt" height="280.643438pt" viewBox="0 0 280.813125 280.643438" xmlns="http://www.w3.org/2000/svg" version="1.1">
 <metadata>
  <rdf:RDF xmlns:dc="http://purl.org/dc/elements/1.1/" xmlns:cc="http://creativecommons.org/ns#" xmlns:rdf="http://www.w3.org/1999/02/22-rdf-syntax-ns#">
   <cc:Work>
    <dc:type rdf:resource="http://purl.org/dc/dcmitype/StillImage"/>
    <dc:date>2025-10-27T12:32:18.506104</dc:date>
    <dc:format>image/svg+xml</dc:format>
    <dc:creator>
     <cc:Agent>
      <dc:title>Matplotlib v3.10.0, https://matplotlib.org/</dc:title>
     </cc:Agent>
    </dc:creator>
   </cc:Work>
  </rdf:RDF>
 </metadata>
 <defs>
  <style type="text/css">*{stroke-linejoin: round; stroke-linecap: butt}</style>
 </defs>
 <g id="figure_1">
  <g id="patch_1">
   <path d="M 0 280.643438 
L 280.813125 280.643438 
L 280.813125 0 
L 0 0 
L 0 280.643438 
z
" style="fill: none"/>
  </g>
  <g id="axes_1">
   <g id="patch_2">
    <path d="M 47.643125 253.64 
L 273.613125 253.64 
L 273.613125 7.2 
L 47.643125 7.2 
L 47.643125 253.64 
z
" style="fill: none"/>
   </g>
   <g id="matplotlib.axis_1">
    <g id="xtick_1">
     <g id="line2d_1">
      <defs>
       <path id="m5a7370bc9a" d="M 0 0 
L 0 3.5 
" style="stroke: #000000; stroke-width: 0.8"/>
      </defs>
      <g>
       <use xlink:href="#m5a7370bc9a" x="103.564994" y="253.64" style="stroke: #000000; stroke-width: 0.8"/>
      </g>
     </g>
     <g id="text_1">
      <!-- TENS on -->
      <g transform="translate(80.277962 270.660937) scale(0.14 -0.14)">
       <defs>
        <path id="ArialNarrow-54" d="M 1369 0 
L 1369 4041 
L 131 4041 
L 131 4581 
L 3109 4581 
L 3109 4041 
L 1866 4041 
L 1866 0 
L 1369 0 
z
" transform="scale(0.015625)"/>
        <path id="ArialNarrow-45" d="M 416 0 
L 416 4581 
L 3131 4581 
L 3131 4041 
L 913 4041 
L 913 2638 
L 2991 2638 
L 2991 2100 
L 913 2100 
L 913 541 
L 3219 541 
L 3219 0 
L 416 0 
z
" transform="scale(0.015625)"/>
        <path id="ArialNarrow-4e" d="M 391 0 
L 391 4581 
L 900 4581 
L 2875 984 
L 2875 4581 
L 3350 4581 
L 3350 0 
L 2841 0 
L 869 3600 
L 869 0 
L 391 0 
z
" transform="scale(0.015625)"/>
        <path id="ArialNarrow-53" d="M 238 1472 
L 706 1522 
Q 744 1144 876 933 
Q 1009 722 1256 594 
Q 1503 466 1813 466 
Q 2256 466 2501 683 
Q 2747 900 2747 1247 
Q 2747 1450 2658 1601 
Q 2569 1753 2389 1850 
Q 2209 1947 1613 2122 
Q 1081 2278 856 2437 
Q 631 2597 506 2842 
Q 381 3088 381 3397 
Q 381 3953 740 4306 
Q 1100 4659 1709 4659 
Q 2128 4659 2442 4493 
Q 2756 4328 2929 4018 
Q 3103 3709 3116 3291 
L 2638 3247 
Q 2600 3694 2370 3909 
Q 2141 4125 1725 4125 
Q 1303 4125 1081 3936 
Q 859 3747 859 3447 
Q 859 3169 1022 3016 
Q 1184 2863 1753 2706 
Q 2309 2553 2534 2441 
Q 2878 2266 3053 1980 
Q 3228 1694 3228 1297 
Q 3228 903 3043 579 
Q 2859 256 2542 87 
Q 2225 -81 1778 -81 
Q 1081 -81 667 337 
Q 253 756 238 1472 
z
" transform="scale(0.015625)"/>
        <path id="ArialNarrow-20" transform="scale(0.015625)"/>
        <path id="ArialNarrow-6f" d="M 166 1659 
Q 166 2519 527 2956 
Q 888 3394 1441 3394 
Q 1984 3394 2350 2956 
Q 2716 2519 2716 1694 
Q 2716 800 2356 362 
Q 1997 -75 1441 -75 
Q 894 -75 530 364 
Q 166 803 166 1659 
z
M 638 1659 
Q 638 1016 872 702 
Q 1106 388 1453 388 
Q 1778 388 2011 705 
Q 2244 1022 2244 1659 
Q 2244 2300 2009 2614 
Q 1775 2928 1428 2928 
Q 1100 2928 869 2612 
Q 638 2297 638 1659 
z
" transform="scale(0.015625)"/>
        <path id="ArialNarrow-6e" d="M 338 0 
L 338 3319 
L 753 3319 
L 753 2847 
Q 903 3122 1120 3258 
Q 1338 3394 1619 3394 
Q 1838 3394 2023 3308 
Q 2209 3222 2323 3083 
Q 2438 2944 2494 2722 
Q 2550 2500 2550 2041 
L 2550 0 
L 2088 0 
L 2088 2019 
Q 2088 2384 2025 2553 
Q 1963 2722 1830 2814 
Q 1697 2906 1522 2906 
Q 1191 2906 994 2659 
Q 797 2413 797 1813 
L 797 0 
L 338 0 
z
" transform="scale(0.015625)"/>
       </defs>
       <use xlink:href="#ArialNarrow-54"/>
       <use xlink:href="#ArialNarrow-45" transform="translate(50.097656 0)"/>
       <use xlink:href="#ArialNarrow-4e" transform="translate(104.785156 0)"/>
       <use xlink:href="#ArialNarrow-53" transform="translate(163.964844 0)"/>
       <use xlink:href="#ArialNarrow-20" transform="translate(218.652344 0)"/>
       <use xlink:href="#ArialNarrow-6f" transform="translate(241.455078 0)"/>
       <use xlink:href="#ArialNarrow-6e" transform="translate(287.060547 0)"/>
      </g>
     </g>
    </g>
    <g id="xtick_2">
     <g id="line2d_2">
      <g>
       <use xlink:href="#m5a7370bc9a" x="217.691256" y="253.64" style="stroke: #000000; stroke-width: 0.8"/>
      </g>
     </g>
     <g id="text_2">
      <!-- TENS off -->
      <g transform="translate(194.501569 270.660937) scale(0.14 -0.14)">
       <defs>
        <path id="ArialNarrow-66" d="M 469 0 
L 469 2881 
L 59 2881 
L 59 3319 
L 469 3319 
L 469 3672 
Q 469 4063 550 4258 
Q 631 4453 798 4556 
Q 966 4659 1219 4659 
Q 1416 4659 1650 4603 
L 1581 4113 
Q 1438 4144 1309 4144 
Q 1103 4144 1014 4036 
Q 925 3928 925 3625 
L 925 3319 
L 1456 3319 
L 1456 2881 
L 925 2881 
L 925 0 
L 469 0 
z
" transform="scale(0.015625)"/>
       </defs>
       <use xlink:href="#ArialNarrow-54"/>
       <use xlink:href="#ArialNarrow-45" transform="translate(50.097656 0)"/>
       <use xlink:href="#ArialNarrow-4e" transform="translate(104.785156 0)"/>
       <use xlink:href="#ArialNarrow-53" transform="translate(163.964844 0)"/>
       <use xlink:href="#ArialNarrow-20" transform="translate(218.652344 0)"/>
       <use xlink:href="#ArialNarrow-6f" transform="translate(241.455078 0)"/>
       <use xlink:href="#ArialNarrow-66" transform="translate(287.060547 0)"/>
       <use xlink:href="#ArialNarrow-66" transform="translate(308.488281 0)"/>
      </g>
     </g>
    </g>
   </g>
   <g id="matplotlib.axis_2">
    <g id="ytick_1">
     <g id="line2d_3">
      <defs>
       <path id="maa1b4209a8" d="M 0 0 
L -3.5 0 
" style="stroke: #000000; stroke-width: 0.8"/>
      </defs>
      <g>
       <use xlink:href="#maa1b4209a8" x="47.643125" y="217.901958" style="stroke: #000000; stroke-width: 0.8"/>
      </g>
     </g>
     <g id="text_3">
      <!-- 20 -->
      <g transform="translate(27.8725 222.912427) scale(0.14 -0.14)">
       <defs>
        <path id="ArialNarrow-32" d="M 2641 541 
L 2641 0 
L 156 0 
Q 147 328 355 734 
Q 563 1141 1116 1694 
Q 1763 2338 1963 2689 
Q 2163 3041 2163 3344 
Q 2163 3694 1958 3914 
Q 1753 4134 1453 4134 
Q 1131 4134 925 3896 
Q 719 3659 719 3216 
L 244 3275 
Q 294 3934 617 4267 
Q 941 4600 1469 4600 
Q 2044 4600 2339 4212 
Q 2634 3825 2634 3331 
Q 2634 2894 2403 2492 
Q 2172 2091 1525 1422 
Q 1113 1000 992 847 
Q 872 694 797 541 
L 2641 541 
z
" transform="scale(0.015625)"/>
        <path id="ArialNarrow-30" d="M 209 2259 
Q 209 3413 520 4006 
Q 831 4600 1438 4600 
Q 1975 4600 2284 4119 
Q 2659 3538 2659 2259 
Q 2659 1113 2350 517 
Q 2041 -78 1431 -78 
Q 894 -78 551 447 
Q 209 972 209 2259 
z
M 681 2259 
Q 681 1144 895 764 
Q 1109 384 1444 384 
Q 1759 384 1971 768 
Q 2184 1153 2184 2259 
Q 2184 3378 1970 3756 
Q 1756 4134 1416 4134 
Q 1103 4134 892 3750 
Q 681 3366 681 2259 
z
" transform="scale(0.015625)"/>
       </defs>
       <use xlink:href="#ArialNarrow-32"/>
       <use xlink:href="#ArialNarrow-30" transform="translate(45.605469 0)"/>
      </g>
     </g>
    </g>
    <g id="ytick_2">
     <g id="line2d_4">
      <g>
       <use xlink:href="#maa1b4209a8" x="47.643125" y="181.212277" style="stroke: #000000; stroke-width: 0.8"/>
      </g>
     </g>
     <g id="text_4">
      <!-- 30 -->
      <g transform="translate(27.8725 186.222746) scale(0.14 -0.14)">
       <defs>
        <path id="ArialNarrow-33" d="M 213 1209 
L 675 1284 
Q 819 384 1403 384 
Q 1719 384 1950 651 
Q 2181 919 2181 1344 
Q 2181 1744 1968 1987 
Q 1756 2231 1447 2231 
Q 1316 2231 1122 2169 
L 1175 2663 
L 1247 2656 
Q 1588 2656 1800 2865 
Q 2013 3075 2013 3425 
Q 2013 3747 1834 3942 
Q 1656 4138 1400 4138 
Q 1134 4138 951 3933 
Q 769 3728 719 3313 
L 259 3413 
Q 347 4000 653 4300 
Q 959 4600 1394 4600 
Q 1850 4600 2169 4262 
Q 2488 3925 2488 3413 
Q 2488 3100 2352 2859 
Q 2216 2619 1972 2481 
Q 2197 2419 2344 2275 
Q 2491 2131 2581 1890 
Q 2672 1650 2672 1353 
Q 2672 722 2300 320 
Q 1928 -81 1409 -81 
Q 928 -81 593 269 
Q 259 619 213 1209 
z
" transform="scale(0.015625)"/>
       </defs>
       <use xlink:href="#ArialNarrow-33"/>
       <use xlink:href="#ArialNarrow-30" transform="translate(45.605469 0)"/>
      </g>
     </g>
    </g>
    <g id="ytick_3">
     <g id="line2d_5">
      <g>
       <use xlink:href="#maa1b4209a8" x="47.643125" y="144.522596" style="stroke: #000000; stroke-width: 0.8"/>
      </g>
     </g>
     <g id="text_5">
      <!-- 40 -->
      <g transform="translate(27.8725 149.533065) scale(0.14 -0.14)">
       <defs>
        <path id="ArialNarrow-34" d="M 1688 0 
L 1688 1097 
L 59 1097 
L 59 1613 
L 1775 4581 
L 2150 4581 
L 2150 1613 
L 2659 1613 
L 2659 1097 
L 2150 1097 
L 2150 0 
L 1688 0 
z
M 1688 1613 
L 1688 3678 
L 513 1613 
L 1688 1613 
z
" transform="scale(0.015625)"/>
       </defs>
       <use xlink:href="#ArialNarrow-34"/>
       <use xlink:href="#ArialNarrow-30" transform="translate(45.605469 0)"/>
      </g>
     </g>
    </g>
    <g id="ytick_4">
     <g id="line2d_6">
      <g>
       <use xlink:href="#maa1b4209a8" x="47.643125" y="107.832915" style="stroke: #000000; stroke-width: 0.8"/>
      </g>
     </g>
     <g id="text_6">
      <!-- 50 -->
      <g transform="translate(27.8725 112.843384) scale(0.14 -0.14)">
       <defs>
        <path id="ArialNarrow-35" d="M 209 1200 
L 694 1250 
Q 750 813 948 598 
Q 1147 384 1409 384 
Q 1738 384 1975 686 
Q 2213 988 2213 1509 
Q 2213 2000 1983 2270 
Q 1753 2541 1406 2541 
Q 1197 2541 1014 2423 
Q 831 2306 725 2097 
L 291 2166 
L 656 4519 
L 2522 4519 
L 2522 3981 
L 1025 3981 
L 822 2750 
Q 1156 3038 1531 3038 
Q 2003 3038 2351 2636 
Q 2700 2234 2700 1553 
Q 2700 881 2351 401 
Q 2003 -78 1416 -78 
Q 928 -78 592 261 
Q 256 600 209 1200 
z
" transform="scale(0.015625)"/>
       </defs>
       <use xlink:href="#ArialNarrow-35"/>
       <use xlink:href="#ArialNarrow-30" transform="translate(45.605469 0)"/>
      </g>
     </g>
    </g>
    <g id="ytick_5">
     <g id="line2d_7">
      <g>
       <use xlink:href="#maa1b4209a8" x="47.643125" y="71.143234" style="stroke: #000000; stroke-width: 0.8"/>
      </g>
     </g>
     <g id="text_7">
      <!-- 60 -->
      <g transform="translate(27.8725 76.153703) scale(0.14 -0.14)">
       <defs>
        <path id="ArialNarrow-36" d="M 2603 3459 
L 2144 3416 
Q 2078 3769 1950 3919 
Q 1766 4138 1506 4138 
Q 1103 4138 859 3638 
Q 650 3206 647 2363 
Q 806 2663 1047 2817 
Q 1288 2972 1556 2972 
Q 2003 2972 2336 2567 
Q 2669 2163 2669 1484 
Q 2669 1025 2501 651 
Q 2334 278 2071 100 
Q 1809 -78 1494 -78 
Q 925 -78 556 434 
Q 188 947 188 2144 
Q 188 3472 566 4036 
Q 944 4600 1534 4600 
Q 1963 4600 2252 4308 
Q 2541 4016 2603 3459 
z
M 719 1484 
Q 719 988 953 686 
Q 1188 384 1497 384 
Q 1769 384 1983 668 
Q 2197 953 2197 1450 
Q 2197 1938 1984 2206 
Q 1772 2475 1466 2475 
Q 1166 2475 942 2208 
Q 719 1941 719 1484 
z
" transform="scale(0.015625)"/>
       </defs>
       <use xlink:href="#ArialNarrow-36"/>
       <use xlink:href="#ArialNarrow-30" transform="translate(45.605469 0)"/>
      </g>
     </g>
    </g>
    <g id="ytick_6">
     <g id="line2d_8">
      <g>
       <use xlink:href="#maa1b4209a8" x="47.643125" y="34.453554" style="stroke: #000000; stroke-width: 0.8"/>
      </g>
     </g>
     <g id="text_8">
      <!-- 70 -->
      <g transform="translate(27.8725 39.464022) scale(0.14 -0.14)">
       <defs>
        <path id="ArialNarrow-37" d="M 241 3981 
L 241 4522 
L 2672 4522 
L 2672 4084 
Q 2128 3378 1715 2245 
Q 1303 1113 1241 0 
L 766 0 
Q 775 575 948 1340 
Q 1122 2106 1425 2800 
Q 1728 3494 2078 3981 
L 241 3981 
z
" transform="scale(0.015625)"/>
       </defs>
       <use xlink:href="#ArialNarrow-37"/>
       <use xlink:href="#ArialNarrow-30" transform="translate(45.605469 0)"/>
      </g>
     </g>
    </g>
    <g id="text_9">
     <!-- Pain rating -->
     <g transform="translate(20.084062 165.705625) rotate(-90) scale(0.18 -0.18)">
      <defs>
       <path id="ArialNarrow-50" d="M 406 0 
L 406 4581 
L 1822 4581 
Q 2322 4581 2559 4494 
Q 2884 4375 3078 4053 
Q 3272 3731 3272 3263 
Q 3272 2644 2956 2253 
Q 2641 1863 1866 1863 
L 903 1863 
L 903 0 
L 406 0 
z
M 903 2403 
L 1875 2403 
Q 2334 2403 2546 2611 
Q 2759 2819 2759 3238 
Q 2759 3509 2654 3703 
Q 2550 3897 2401 3969 
Q 2253 4041 1866 4041 
L 903 4041 
L 903 2403 
z
" transform="scale(0.015625)"/>
       <path id="ArialNarrow-61" d="M 2113 409 
Q 1881 169 1631 47 
Q 1381 -75 1113 -75 
Q 688 -75 434 181 
Q 181 438 181 872 
Q 181 1159 300 1381 
Q 419 1603 625 1728 
Q 831 1853 1250 1913 
Q 1813 1994 2075 2106 
L 2078 2250 
Q 2078 2591 1956 2728 
Q 1784 2928 1428 2928 
Q 1106 2928 947 2795 
Q 788 2663 713 2297 
L 259 2372 
Q 356 2906 651 3150 
Q 947 3394 1497 3394 
Q 1925 3394 2169 3233 
Q 2413 3072 2477 2834 
Q 2541 2597 2541 2141 
L 2541 1391 
Q 2541 603 2570 398 
Q 2600 194 2688 0 
L 2206 0 
Q 2134 172 2113 409 
z
M 2075 1666 
Q 1822 1541 1322 1453 
Q 1031 1403 915 1339 
Q 800 1275 736 1158 
Q 672 1041 672 888 
Q 672 650 819 508 
Q 966 366 1225 366 
Q 1472 366 1673 494 
Q 1875 622 1975 836 
Q 2075 1050 2075 1459 
L 2075 1666 
z
" transform="scale(0.015625)"/>
       <path id="ArialNarrow-69" d="M 338 3934 
L 338 4581 
L 797 4581 
L 797 3934 
L 338 3934 
z
M 338 0 
L 338 3319 
L 797 3319 
L 797 0 
L 338 0 
z
" transform="scale(0.015625)"/>
       <path id="ArialNarrow-72" d="M 338 0 
L 338 3319 
L 753 3319 
L 753 2816 
Q 913 3166 1045 3280 
Q 1178 3394 1344 3394 
Q 1575 3394 1816 3213 
L 1659 2691 
Q 1488 2813 1325 2813 
Q 1178 2813 1056 2709 
Q 934 2606 884 2422 
Q 797 2100 797 1738 
L 797 0 
L 338 0 
z
" transform="scale(0.015625)"/>
       <path id="ArialNarrow-74" d="M 1366 503 
L 1428 6 
Q 1238 -44 1084 -44 
Q 844 -44 697 51 
Q 550 147 495 312 
Q 441 478 441 972 
L 441 2881 
L 103 2881 
L 103 3319 
L 441 3319 
L 441 4141 
L 900 4478 
L 900 3319 
L 1366 3319 
L 1366 2881 
L 900 2881 
L 900 941 
Q 900 672 941 594 
Q 1000 481 1163 481 
Q 1241 481 1366 503 
z
" transform="scale(0.015625)"/>
       <path id="ArialNarrow-67" d="M 250 -275 
L 700 -356 
Q 731 -622 887 -751 
Q 1044 -881 1322 -881 
Q 1625 -881 1804 -736 
Q 1984 -591 2050 -303 
Q 2091 -128 2091 434 
Q 1941 219 1753 109 
Q 1566 0 1338 0 
Q 850 0 528 413 
Q 159 888 159 1684 
Q 159 2219 321 2619 
Q 484 3019 748 3206 
Q 1013 3394 1341 3394 
Q 1581 3394 1779 3275 
Q 1978 3156 2131 2919 
L 2131 3319 
L 2556 3319 
L 2556 450 
Q 2556 -316 2431 -642 
Q 2306 -969 2022 -1158 
Q 1738 -1347 1338 -1347 
Q 809 -1347 525 -1062 
Q 241 -778 250 -275 
z
M 634 1719 
Q 634 1066 850 766 
Q 1066 466 1378 466 
Q 1691 466 1909 759 
Q 2128 1053 2128 1694 
Q 2128 2319 1903 2623 
Q 1678 2928 1356 2928 
Q 1069 2928 851 2623 
Q 634 2319 634 1719 
z
" transform="scale(0.015625)"/>
      </defs>
      <use xlink:href="#ArialNarrow-50"/>
      <use xlink:href="#ArialNarrow-61" transform="translate(54.6875 0)"/>
      <use xlink:href="#ArialNarrow-69" transform="translate(100.292969 0)"/>
      <use xlink:href="#ArialNarrow-6e" transform="translate(118.505859 0)"/>
      <use xlink:href="#ArialNarrow-20" transform="translate(164.111328 0)"/>
      <use xlink:href="#ArialNarrow-72" transform="translate(186.914062 0)"/>
      <use xlink:href="#ArialNarrow-61" transform="translate(214.208984 0)"/>
      <use xlink:href="#ArialNarrow-74" transform="translate(259.814453 0)"/>
      <use xlink:href="#ArialNarrow-69" transform="translate(282.617188 0)"/>
      <use xlink:href="#ArialNarrow-6e" transform="translate(300.830078 0)"/>
      <use xlink:href="#ArialNarrow-67" transform="translate(346.435547 0)"/>
     </g>
    </g>
   </g>
   <g id="patch_3">
    <path d="M 57.914489 206.035139 
L 149.215499 206.035139 
L 149.215499 130.878621 
L 57.914489 130.878621 
L 57.914489 206.035139 
z
" clip-path="url(#pdea4f912c9)" style="fill: #2e7ba7; stroke: #303030; stroke-linejoin: miter"/>
   </g>
   <g id="line2d_9">
    <path d="M 103.564994 206.035139 
L 103.564994 242.438182 
" clip-path="url(#pdea4f912c9)" style="fill: none; stroke: #303030"/>
   </g>
   <g id="line2d_10">
    <path d="M 103.564994 130.878621 
L 103.564994 85.819107 
" clip-path="url(#pdea4f912c9)" style="fill: none; stroke: #303030"/>
   </g>
   <g id="patch_4">
    <path d="M 172.040751 166.937698 
L 263.341761 166.937698 
L 263.341761 86.564366 
L 172.040751 86.564366 
L 172.040751 166.937698 
z
" clip-path="url(#pdea4f912c9)" style="fill: #8c1414; stroke: #303030; stroke-linejoin: miter"/>
   </g>
   <g id="line2d_11">
    <path d="M 217.691256 166.937698 
L 217.691256 222.258857 
" clip-path="url(#pdea4f912c9)" style="fill: none; stroke: #303030"/>
   </g>
   <g id="line2d_12">
    <path d="M 217.691256 86.564366 
L 217.691256 18.401818 
" clip-path="url(#pdea4f912c9)" style="fill: none; stroke: #303030"/>
   </g>
   <g id="line2d_13">
    <path d="M 103.564994 178.00193 
L 217.691256 139.707075 
" clip-path="url(#pdea4f912c9)" style="fill: none; stroke: #808080; stroke-opacity: 0.5; stroke-width: 1.5; stroke-linecap: square"/>
   </g>
   <g id="line2d_14">
    <path d="M 103.564994 178.00193 
L 217.691256 139.707075 
" clip-path="url(#pdea4f912c9)" style="fill: none; stroke: #808080; stroke-opacity: 0.5; stroke-width: 1.5; stroke-linecap: square"/>
   </g>
   <g id="line2d_15">
    <path d="M 103.564994 209.64678 
L 217.691256 135.350176 
" clip-path="url(#pdea4f912c9)" style="fill: none; stroke: #808080; stroke-opacity: 0.5; stroke-width: 1.5; stroke-linecap: square"/>
   </g>
   <g id="line2d_16">
    <path d="M 103.564994 209.64678 
L 217.691256 135.350176 
" clip-path="url(#pdea4f912c9)" style="fill: none; stroke: #808080; stroke-opacity: 0.5; stroke-width: 1.5; stroke-linecap: square"/>
   </g>
   <g id="line2d_17">
    <path d="M 103.564994 85.819107 
L 217.691256 61.282883 
" clip-path="url(#pdea4f912c9)" style="fill: none; stroke: #808080; stroke-opacity: 0.5; stroke-width: 1.5; stroke-linecap: square"/>
   </g>
   <g id="line2d_18">
    <path d="M 103.564994 85.819107 
L 217.691256 61.282883 
" clip-path="url(#pdea4f912c9)" style="fill: none; stroke: #808080; stroke-opacity: 0.5; stroke-width: 1.5; stroke-linecap: square"/>
   </g>
   <g id="line2d_19">
    <path d="M 103.564994 125.031203 
L 217.691256 53.486325 
" clip-path="url(#pdea4f912c9)" style="fill: none; stroke: #808080; stroke-opacity: 0.5; stroke-width: 1.5; stroke-linecap: square"/>
   </g>
   <g id="line2d_20">
    <path d="M 103.564994 125.031203 
L 217.691256 53.486325 
" clip-path="url(#pdea4f912c9)" style="fill: none; stroke: #808080; stroke-opacity: 0.5; stroke-width: 1.5; stroke-linecap: square"/>
   </g>
   <g id="line2d_21">
    <path d="M 103.564994 134.891555 
L 217.691256 73.436339 
" clip-path="url(#pdea4f912c9)" style="fill: none; stroke: #808080; stroke-opacity: 0.5; stroke-width: 1.5; stroke-linecap: square"/>
   </g>
   <g id="line2d_22">
    <path d="M 103.564994 134.891555 
L 217.691256 73.436339 
" clip-path="url(#pdea4f912c9)" style="fill: none; stroke: #808080; stroke-opacity: 0.5; stroke-width: 1.5; stroke-linecap: square"/>
   </g>
   <g id="line2d_23">
    <path d="M 103.564994 132.82776 
L 217.691256 100.036358 
" clip-path="url(#pdea4f912c9)" style="fill: none; stroke: #808080; stroke-opacity: 0.5; stroke-width: 1.5; stroke-linecap: square"/>
   </g>
   <g id="line2d_24">
    <path d="M 103.564994 132.82776 
L 217.691256 100.036358 
" clip-path="url(#pdea4f912c9)" style="fill: none; stroke: #808080; stroke-opacity: 0.5; stroke-width: 1.5; stroke-linecap: square"/>
   </g>
   <g id="line2d_25">
    <path d="M 103.564994 208.270917 
L 217.691256 153.924327 
" clip-path="url(#pdea4f912c9)" style="fill: none; stroke: #808080; stroke-opacity: 0.5; stroke-width: 1.5; stroke-linecap: square"/>
   </g>
   <g id="line2d_26">
    <path d="M 103.564994 208.270917 
L 217.691256 153.924327 
" clip-path="url(#pdea4f912c9)" style="fill: none; stroke: #808080; stroke-opacity: 0.5; stroke-width: 1.5; stroke-linecap: square"/>
   </g>
   <g id="line2d_27">
    <path d="M 103.564994 229.826104 
L 217.691256 186.715729 
" clip-path="url(#pdea4f912c9)" style="fill: none; stroke: #808080; stroke-opacity: 0.5; stroke-width: 1.5; stroke-linecap: square"/>
   </g>
   <g id="line2d_28">
    <path d="M 103.564994 229.826104 
L 217.691256 186.715729 
" clip-path="url(#pdea4f912c9)" style="fill: none; stroke: #808080; stroke-opacity: 0.5; stroke-width: 1.5; stroke-linecap: square"/>
   </g>
   <g id="line2d_29">
    <path d="M 103.564994 151.401911 
L 217.691256 86.736349 
" clip-path="url(#pdea4f912c9)" style="fill: none; stroke: #808080; stroke-opacity: 0.5; stroke-width: 1.5; stroke-linecap: square"/>
   </g>
   <g id="line2d_30">
    <path d="M 103.564994 151.401911 
L 217.691256 86.736349 
" clip-path="url(#pdea4f912c9)" style="fill: none; stroke: #808080; stroke-opacity: 0.5; stroke-width: 1.5; stroke-linecap: square"/>
   </g>
   <g id="line2d_31">
    <path d="M 103.564994 214.23299 
L 217.691256 174.562272 
" clip-path="url(#pdea4f912c9)" style="fill: none; stroke: #808080; stroke-opacity: 0.5; stroke-width: 1.5; stroke-linecap: square"/>
   </g>
   <g id="line2d_32">
    <path d="M 103.564994 214.23299 
L 217.691256 174.562272 
" clip-path="url(#pdea4f912c9)" style="fill: none; stroke: #808080; stroke-opacity: 0.5; stroke-width: 1.5; stroke-linecap: square"/>
   </g>
   <g id="line2d_33">
    <path d="M 103.564994 117.922577 
L 217.691256 86.048417 
" clip-path="url(#pdea4f912c9)" style="fill: none; stroke: #808080; stroke-opacity: 0.5; stroke-width: 1.5; stroke-linecap: square"/>
   </g>
   <g id="line2d_34">
    <path d="M 103.564994 117.922577 
L 217.691256 86.048417 
" clip-path="url(#pdea4f912c9)" style="fill: none; stroke: #808080; stroke-opacity: 0.5; stroke-width: 1.5; stroke-linecap: square"/>
   </g>
   <g id="line2d_35">
    <path d="M 103.564994 135.120865 
L 217.691256 106.915673 
" clip-path="url(#pdea4f912c9)" style="fill: none; stroke: #808080; stroke-opacity: 0.5; stroke-width: 1.5; stroke-linecap: square"/>
   </g>
   <g id="line2d_36">
    <path d="M 103.564994 135.120865 
L 217.691256 106.915673 
" clip-path="url(#pdea4f912c9)" style="fill: none; stroke: #808080; stroke-opacity: 0.5; stroke-width: 1.5; stroke-linecap: square"/>
   </g>
   <g id="line2d_37">
    <path d="M 103.564994 160.11571 
L 217.691256 107.374294 
" clip-path="url(#pdea4f912c9)" style="fill: none; stroke: #808080; stroke-opacity: 0.5; stroke-width: 1.5; stroke-linecap: square"/>
   </g>
   <g id="line2d_38">
    <path d="M 103.564994 160.11571 
L 217.691256 107.374294 
" clip-path="url(#pdea4f912c9)" style="fill: none; stroke: #808080; stroke-opacity: 0.5; stroke-width: 1.5; stroke-linecap: square"/>
   </g>
   <g id="line2d_39">
    <path d="M 103.564994 114.71223 
L 217.691256 91.78118 
" clip-path="url(#pdea4f912c9)" style="fill: none; stroke: #808080; stroke-opacity: 0.5; stroke-width: 1.5; stroke-linecap: square"/>
   </g>
   <g id="line2d_40">
    <path d="M 103.564994 114.71223 
L 217.691256 91.78118 
" clip-path="url(#pdea4f912c9)" style="fill: none; stroke: #808080; stroke-opacity: 0.5; stroke-width: 1.5; stroke-linecap: square"/>
   </g>
   <g id="line2d_41">
    <path d="M 103.564994 178.460551 
L 217.691256 141.312249 
" clip-path="url(#pdea4f912c9)" style="fill: none; stroke: #808080; stroke-opacity: 0.5; stroke-width: 1.5; stroke-linecap: square"/>
   </g>
   <g id="line2d_42">
    <path d="M 103.564994 178.460551 
L 217.691256 141.312249 
" clip-path="url(#pdea4f912c9)" style="fill: none; stroke: #808080; stroke-opacity: 0.5; stroke-width: 1.5; stroke-linecap: square"/>
   </g>
   <g id="line2d_43">
    <path d="M 103.564994 99.348427 
L 217.691256 75.041513 
" clip-path="url(#pdea4f912c9)" style="fill: none; stroke: #808080; stroke-opacity: 0.5; stroke-width: 1.5; stroke-linecap: square"/>
   </g>
   <g id="line2d_44">
    <path d="M 103.564994 99.348427 
L 217.691256 75.041513 
" clip-path="url(#pdea4f912c9)" style="fill: none; stroke: #808080; stroke-opacity: 0.5; stroke-width: 1.5; stroke-linecap: square"/>
   </g>
   <g id="line2d_45">
    <path d="M 103.564994 176.396756 
L 217.691256 139.019144 
" clip-path="url(#pdea4f912c9)" style="fill: none; stroke: #808080; stroke-opacity: 0.5; stroke-width: 1.5; stroke-linecap: square"/>
   </g>
   <g id="line2d_46">
    <path d="M 103.564994 176.396756 
L 217.691256 139.019144 
" clip-path="url(#pdea4f912c9)" style="fill: none; stroke: #808080; stroke-opacity: 0.5; stroke-width: 1.5; stroke-linecap: square"/>
   </g>
   <g id="line2d_47">
    <path d="M 103.564994 212.398506 
L 217.691256 182.129519 
" clip-path="url(#pdea4f912c9)" style="fill: none; stroke: #808080; stroke-opacity: 0.5; stroke-width: 1.5; stroke-linecap: square"/>
   </g>
   <g id="line2d_48">
    <path d="M 103.564994 212.398506 
L 217.691256 182.129519 
" clip-path="url(#pdea4f912c9)" style="fill: none; stroke: #808080; stroke-opacity: 0.5; stroke-width: 1.5; stroke-linecap: square"/>
   </g>
   <g id="line2d_49">
    <path d="M 103.564994 205.28988 
L 217.691256 174.332962 
" clip-path="url(#pdea4f912c9)" style="fill: none; stroke: #808080; stroke-opacity: 0.5; stroke-width: 1.5; stroke-linecap: square"/>
   </g>
   <g id="line2d_50">
    <path d="M 103.564994 205.28988 
L 217.691256 174.332962 
" clip-path="url(#pdea4f912c9)" style="fill: none; stroke: #808080; stroke-opacity: 0.5; stroke-width: 1.5; stroke-linecap: square"/>
   </g>
   <g id="line2d_51">
    <path d="M 103.564994 174.103651 
L 217.691256 139.707075 
" clip-path="url(#pdea4f912c9)" style="fill: none; stroke: #808080; stroke-opacity: 0.5; stroke-width: 1.5; stroke-linecap: square"/>
   </g>
   <g id="line2d_52">
    <path d="M 103.564994 174.103651 
L 217.691256 139.707075 
" clip-path="url(#pdea4f912c9)" style="fill: none; stroke: #808080; stroke-opacity: 0.5; stroke-width: 1.5; stroke-linecap: square"/>
   </g>
   <g id="line2d_53">
    <path d="M 103.564994 232.119209 
L 217.691256 220.195063 
" clip-path="url(#pdea4f912c9)" style="fill: none; stroke: #808080; stroke-opacity: 0.5; stroke-width: 1.5; stroke-linecap: square"/>
   </g>
   <g id="line2d_54">
    <path d="M 103.564994 232.119209 
L 217.691256 220.195063 
" clip-path="url(#pdea4f912c9)" style="fill: none; stroke: #808080; stroke-opacity: 0.5; stroke-width: 1.5; stroke-linecap: square"/>
   </g>
   <g id="line2d_55">
    <path d="M 103.564994 91.093248 
L 217.691256 18.401818 
" clip-path="url(#pdea4f912c9)" style="fill: none; stroke: #808080; stroke-opacity: 0.5; stroke-width: 1.5; stroke-linecap: square"/>
   </g>
   <g id="line2d_56">
    <path d="M 103.564994 91.093248 
L 217.691256 18.401818 
" clip-path="url(#pdea4f912c9)" style="fill: none; stroke: #808080; stroke-opacity: 0.5; stroke-width: 1.5; stroke-linecap: square"/>
   </g>
   <g id="line2d_57">
    <path d="M 103.564994 242.438182 
L 217.691256 222.258857 
" clip-path="url(#pdea4f912c9)" style="fill: none; stroke: #808080; stroke-opacity: 0.5; stroke-width: 1.5; stroke-linecap: square"/>
   </g>
   <g id="line2d_58">
    <path d="M 103.564994 242.438182 
L 217.691256 222.258857 
" clip-path="url(#pdea4f912c9)" style="fill: none; stroke: #808080; stroke-opacity: 0.5; stroke-width: 1.5; stroke-linecap: square"/>
   </g>
   <g id="line2d_59">
    <path d="M 103.564994 197.493323 
L 217.691256 183.964003 
" clip-path="url(#pdea4f912c9)" style="fill: none; stroke: #808080; stroke-opacity: 0.5; stroke-width: 1.5; stroke-linecap: square"/>
   </g>
   <g id="line2d_60">
    <path d="M 103.564994 197.493323 
L 217.691256 183.964003 
" clip-path="url(#pdea4f912c9)" style="fill: none; stroke: #808080; stroke-opacity: 0.5; stroke-width: 1.5; stroke-linecap: square"/>
   </g>
   <g id="line2d_61">
    <path d="M 103.564994 175.250204 
L 217.691256 128.929482 
" clip-path="url(#pdea4f912c9)" style="fill: none; stroke: #808080; stroke-opacity: 0.5; stroke-width: 1.5; stroke-linecap: square"/>
   </g>
   <g id="line2d_62">
    <path d="M 103.564994 175.250204 
L 217.691256 128.929482 
" clip-path="url(#pdea4f912c9)" style="fill: none; stroke: #808080; stroke-opacity: 0.5; stroke-width: 1.5; stroke-linecap: square"/>
   </g>
   <g id="line2d_63">
    <path d="M 103.564994 179.836414 
L 217.691256 164.47261 
" clip-path="url(#pdea4f912c9)" style="fill: none; stroke: #808080; stroke-opacity: 0.5; stroke-width: 1.5; stroke-linecap: square"/>
   </g>
   <g id="line2d_64">
    <path d="M 103.564994 179.836414 
L 217.691256 164.47261 
" clip-path="url(#pdea4f912c9)" style="fill: none; stroke: #808080; stroke-opacity: 0.5; stroke-width: 1.5; stroke-linecap: square"/>
   </g>
   <g id="line2d_65">
    <path d="M 103.564994 140.395007 
L 217.691256 86.736349 
" clip-path="url(#pdea4f912c9)" style="fill: none; stroke: #808080; stroke-opacity: 0.5; stroke-width: 1.5; stroke-linecap: square"/>
   </g>
   <g id="line2d_66">
    <path d="M 103.564994 140.395007 
L 217.691256 86.736349 
" clip-path="url(#pdea4f912c9)" style="fill: none; stroke: #808080; stroke-opacity: 0.5; stroke-width: 1.5; stroke-linecap: square"/>
   </g>
   <g id="line2d_67">
    <path d="M 103.564994 95.450148 
L 217.691256 67.932887 
" clip-path="url(#pdea4f912c9)" style="fill: none; stroke: #808080; stroke-opacity: 0.5; stroke-width: 1.5; stroke-linecap: square"/>
   </g>
   <g id="line2d_68">
    <path d="M 103.564994 95.450148 
L 217.691256 67.932887 
" clip-path="url(#pdea4f912c9)" style="fill: none; stroke: #808080; stroke-opacity: 0.5; stroke-width: 1.5; stroke-linecap: square"/>
   </g>
   <g id="line2d_69">
    <path d="M 57.914489 174.676928 
L 149.215499 174.676928 
" clip-path="url(#pdea4f912c9)" style="fill: none; stroke: #303030"/>
   </g>
   <g id="line2d_70">
    <path d="M 172.040751 132.139829 
L 263.341761 132.139829 
" clip-path="url(#pdea4f912c9)" style="fill: none; stroke: #303030"/>
   </g>
   <g id="patch_5">
    <path d="M 47.643125 253.64 
L 47.643125 7.2 
" style="fill: none; stroke: #000000; stroke-width: 0.8; stroke-linejoin: miter; stroke-linecap: square"/>
   </g>
   <g id="patch_6">
    <path d="M 273.613125 253.64 
L 273.613125 7.2 
" style="fill: none; stroke: #000000; stroke-width: 0.8; stroke-linejoin: miter; stroke-linecap: square"/>
   </g>
   <g id="patch_7">
    <path d="M 47.643125 253.64 
L 273.613125 253.64 
" style="fill: none; stroke: #000000; stroke-width: 0.8; stroke-linejoin: miter; stroke-linecap: square"/>
   </g>
   <g id="patch_8">
    <path d="M 47.643125 7.2 
L 273.613125 7.2 
" style="fill: none; stroke: #000000; stroke-width: 0.8; stroke-linejoin: miter; stroke-linecap: square"/>
   </g>
   <g id="PathCollection_1">
    <defs>
     <path id="C0_0_ee43a2f4a6" d="M 0 6 
C 1.591219 6 3.117479 5.367802 4.242641 4.242641 
C 5.367802 3.117479 6 1.591219 6 -0 
C 6 -1.591219 5.367802 -3.117479 4.242641 -4.242641 
C 3.117479 -5.367802 1.591219 -6 0 -6 
C -1.591219 -6 -3.117479 -5.367802 -4.242641 -4.242641 
C -5.367802 -3.117479 -6 -1.591219 -6 0 
C -6 1.591219 -5.367802 3.117479 -4.242641 4.242641 
C -3.117479 5.367802 -1.591219 6 0 6 
z
"/>
    </defs>
    <g clip-path="url(#pdea4f912c9)">
     <use xlink:href="#C0_0_ee43a2f4a6" x="103.564994" y="178.00193" style="fill: #1a80bb; fill-opacity: 0.5; stroke: #000000; stroke-opacity: 0.5"/>
    </g>
    <g clip-path="url(#pdea4f912c9)">
     <use xlink:href="#C0_0_ee43a2f4a6" x="103.564994" y="209.64678" style="fill: #1a80bb; fill-opacity: 0.5; stroke: #000000; stroke-opacity: 0.5"/>
    </g>
    <g clip-path="url(#pdea4f912c9)">
     <use xlink:href="#C0_0_ee43a2f4a6" x="103.564994" y="85.819107" style="fill: #1a80bb; fill-opacity: 0.5; stroke: #000000; stroke-opacity: 0.5"/>
    </g>
    <g clip-path="url(#pdea4f912c9)">
     <use xlink:href="#C0_0_ee43a2f4a6" x="103.564994" y="125.031203" style="fill: #1a80bb; fill-opacity: 0.5; stroke: #000000; stroke-opacity: 0.5"/>
    </g>
    <g clip-path="url(#pdea4f912c9)">
     <use xlink:href="#C0_0_ee43a2f4a6" x="103.564994" y="134.891555" style="fill: #1a80bb; fill-opacity: 0.5; stroke: #000000; stroke-opacity: 0.5"/>
    </g>
    <g clip-path="url(#pdea4f912c9)">
     <use xlink:href="#C0_0_ee43a2f4a6" x="103.564994" y="132.82776" style="fill: #1a80bb; fill-opacity: 0.5; stroke: #000000; stroke-opacity: 0.5"/>
    </g>
    <g clip-path="url(#pdea4f912c9)">
     <use xlink:href="#C0_0_ee43a2f4a6" x="103.564994" y="208.270917" style="fill: #1a80bb; fill-opacity: 0.5; stroke: #000000; stroke-opacity: 0.5"/>
    </g>
    <g clip-path="url(#pdea4f912c9)">
     <use xlink:href="#C0_0_ee43a2f4a6" x="103.564994" y="229.826104" style="fill: #1a80bb; fill-opacity: 0.5; stroke: #000000; stroke-opacity: 0.5"/>
    </g>
    <g clip-path="url(#pdea4f912c9)">
     <use xlink:href="#C0_0_ee43a2f4a6" x="103.564994" y="151.401911" style="fill: #1a80bb; fill-opacity: 0.5; stroke: #000000; stroke-opacity: 0.5"/>
    </g>
    <g clip-path="url(#pdea4f912c9)">
     <use xlink:href="#C0_0_ee43a2f4a6" x="103.564994" y="214.23299" style="fill: #1a80bb; fill-opacity: 0.5; stroke: #000000; stroke-opacity: 0.5"/>
    </g>
    <g clip-path="url(#pdea4f912c9)">
     <use xlink:href="#C0_0_ee43a2f4a6" x="103.564994" y="117.922577" style="fill: #1a80bb; fill-opacity: 0.5; stroke: #000000; stroke-opacity: 0.5"/>
    </g>
    <g clip-path="url(#pdea4f912c9)">
     <use xlink:href="#C0_0_ee43a2f4a6" x="103.564994" y="135.120865" style="fill: #1a80bb; fill-opacity: 0.5; stroke: #000000; stroke-opacity: 0.5"/>
    </g>
    <g clip-path="url(#pdea4f912c9)">
     <use xlink:href="#C0_0_ee43a2f4a6" x="103.564994" y="160.11571" style="fill: #1a80bb; fill-opacity: 0.5; stroke: #000000; stroke-opacity: 0.5"/>
    </g>
    <g clip-path="url(#pdea4f912c9)">
     <use xlink:href="#C0_0_ee43a2f4a6" x="103.564994" y="114.71223" style="fill: #1a80bb; fill-opacity: 0.5; stroke: #000000; stroke-opacity: 0.5"/>
    </g>
    <g clip-path="url(#pdea4f912c9)">
     <use xlink:href="#C0_0_ee43a2f4a6" x="103.564994" y="178.460551" style="fill: #1a80bb; fill-opacity: 0.5; stroke: #000000; stroke-opacity: 0.5"/>
    </g>
    <g clip-path="url(#pdea4f912c9)">
     <use xlink:href="#C0_0_ee43a2f4a6" x="103.564994" y="99.348427" style="fill: #1a80bb; fill-opacity: 0.5; stroke: #000000; stroke-opacity: 0.5"/>
    </g>
    <g clip-path="url(#pdea4f912c9)">
     <use xlink:href="#C0_0_ee43a2f4a6" x="103.564994" y="176.396756" style="fill: #1a80bb; fill-opacity: 0.5; stroke: #000000; stroke-opacity: 0.5"/>
    </g>
    <g clip-path="url(#pdea4f912c9)">
     <use xlink:href="#C0_0_ee43a2f4a6" x="103.564994" y="212.398506" style="fill: #1a80bb; fill-opacity: 0.5; stroke: #000000; stroke-opacity: 0.5"/>
    </g>
    <g clip-path="url(#pdea4f912c9)">
     <use xlink:href="#C0_0_ee43a2f4a6" x="103.564994" y="205.28988" style="fill: #1a80bb; fill-opacity: 0.5; stroke: #000000; stroke-opacity: 0.5"/>
    </g>
    <g clip-path="url(#pdea4f912c9)">
     <use xlink:href="#C0_0_ee43a2f4a6" x="103.564994" y="174.103651" style="fill: #1a80bb; fill-opacity: 0.5; stroke: #000000; stroke-opacity: 0.5"/>
    </g>
    <g clip-path="url(#pdea4f912c9)">
     <use xlink:href="#C0_0_ee43a2f4a6" x="103.564994" y="232.119209" style="fill: #1a80bb; fill-opacity: 0.5; stroke: #000000; stroke-opacity: 0.5"/>
    </g>
    <g clip-path="url(#pdea4f912c9)">
     <use xlink:href="#C0_0_ee43a2f4a6" x="103.564994" y="91.093248" style="fill: #1a80bb; fill-opacity: 0.5; stroke: #000000; stroke-opacity: 0.5"/>
    </g>
    <g clip-path="url(#pdea4f912c9)">
     <use xlink:href="#C0_0_ee43a2f4a6" x="103.564994" y="242.438182" style="fill: #1a80bb; fill-opacity: 0.5; stroke: #000000; stroke-opacity: 0.5"/>
    </g>
    <g clip-path="url(#pdea4f912c9)">
     <use xlink:href="#C0_0_ee43a2f4a6" x="103.564994" y="197.493323" style="fill: #1a80bb; fill-opacity: 0.5; stroke: #000000; stroke-opacity: 0.5"/>
    </g>
    <g clip-path="url(#pdea4f912c9)">
     <use xlink:href="#C0_0_ee43a2f4a6" x="103.564994" y="175.250204" style="fill: #1a80bb; fill-opacity: 0.5; stroke: #000000; stroke-opacity: 0.5"/>
    </g>
    <g clip-path="url(#pdea4f912c9)">
     <use xlink:href="#C0_0_ee43a2f4a6" x="103.564994" y="179.836414" style="fill: #1a80bb; fill-opacity: 0.5; stroke: #000000; stroke-opacity: 0.5"/>
    </g>
    <g clip-path="url(#pdea4f912c9)">
     <use xlink:href="#C0_0_ee43a2f4a6" x="103.564994" y="140.395007" style="fill: #1a80bb; fill-opacity: 0.5; stroke: #000000; stroke-opacity: 0.5"/>
    </g>
    <g clip-path="url(#pdea4f912c9)">
     <use xlink:href="#C0_0_ee43a2f4a6" x="103.564994" y="95.450148" style="fill: #1a80bb; fill-opacity: 0.5; stroke: #000000; stroke-opacity: 0.5"/>
    </g>
   </g>
   <g id="PathCollection_2">
    <defs>
     <path id="C1_0_d8b502465d" d="M 0 6 
C 1.591219 6 3.117479 5.367802 4.242641 4.242641 
C 5.367802 3.117479 6 1.591219 6 -0 
C 6 -1.591219 5.367802 -3.117479 4.242641 -4.242641 
C 3.117479 -5.367802 1.591219 -6 0 -6 
C -1.591219 -6 -3.117479 -5.367802 -4.242641 -4.242641 
C -5.367802 -3.117479 -6 -1.591219 -6 0 
C -6 1.591219 -5.367802 3.117479 -4.242641 4.242641 
C -3.117479 5.367802 -1.591219 6 0 6 
z
"/>
    </defs>
    <g clip-path="url(#pdea4f912c9)">
     <use xlink:href="#C1_0_d8b502465d" x="217.691256" y="139.707075" style="fill: #a00000; fill-opacity: 0.5; stroke: #000000; stroke-opacity: 0.5"/>
    </g>
    <g clip-path="url(#pdea4f912c9)">
     <use xlink:href="#C1_0_d8b502465d" x="217.691256" y="135.350176" style="fill: #a00000; fill-opacity: 0.5; stroke: #000000; stroke-opacity: 0.5"/>
    </g>
    <g clip-path="url(#pdea4f912c9)">
     <use xlink:href="#C1_0_d8b502465d" x="217.691256" y="61.282883" style="fill: #a00000; fill-opacity: 0.5; stroke: #000000; stroke-opacity: 0.5"/>
    </g>
    <g clip-path="url(#pdea4f912c9)">
     <use xlink:href="#C1_0_d8b502465d" x="217.691256" y="53.486325" style="fill: #a00000; fill-opacity: 0.5; stroke: #000000; stroke-opacity: 0.5"/>
    </g>
    <g clip-path="url(#pdea4f912c9)">
     <use xlink:href="#C1_0_d8b502465d" x="217.691256" y="73.436339" style="fill: #a00000; fill-opacity: 0.5; stroke: #000000; stroke-opacity: 0.5"/>
    </g>
    <g clip-path="url(#pdea4f912c9)">
     <use xlink:href="#C1_0_d8b502465d" x="217.691256" y="100.036358" style="fill: #a00000; fill-opacity: 0.5; stroke: #000000; stroke-opacity: 0.5"/>
    </g>
    <g clip-path="url(#pdea4f912c9)">
     <use xlink:href="#C1_0_d8b502465d" x="217.691256" y="153.924327" style="fill: #a00000; fill-opacity: 0.5; stroke: #000000; stroke-opacity: 0.5"/>
    </g>
    <g clip-path="url(#pdea4f912c9)">
     <use xlink:href="#C1_0_d8b502465d" x="217.691256" y="186.715729" style="fill: #a00000; fill-opacity: 0.5; stroke: #000000; stroke-opacity: 0.5"/>
    </g>
    <g clip-path="url(#pdea4f912c9)">
     <use xlink:href="#C1_0_d8b502465d" x="217.691256" y="86.736349" style="fill: #a00000; fill-opacity: 0.5; stroke: #000000; stroke-opacity: 0.5"/>
    </g>
    <g clip-path="url(#pdea4f912c9)">
     <use xlink:href="#C1_0_d8b502465d" x="217.691256" y="174.562272" style="fill: #a00000; fill-opacity: 0.5; stroke: #000000; stroke-opacity: 0.5"/>
    </g>
    <g clip-path="url(#pdea4f912c9)">
     <use xlink:href="#C1_0_d8b502465d" x="217.691256" y="86.048417" style="fill: #a00000; fill-opacity: 0.5; stroke: #000000; stroke-opacity: 0.5"/>
    </g>
    <g clip-path="url(#pdea4f912c9)">
     <use xlink:href="#C1_0_d8b502465d" x="217.691256" y="106.915673" style="fill: #a00000; fill-opacity: 0.5; stroke: #000000; stroke-opacity: 0.5"/>
    </g>
    <g clip-path="url(#pdea4f912c9)">
     <use xlink:href="#C1_0_d8b502465d" x="217.691256" y="107.374294" style="fill: #a00000; fill-opacity: 0.5; stroke: #000000; stroke-opacity: 0.5"/>
    </g>
    <g clip-path="url(#pdea4f912c9)">
     <use xlink:href="#C1_0_d8b502465d" x="217.691256" y="91.78118" style="fill: #a00000; fill-opacity: 0.5; stroke: #000000; stroke-opacity: 0.5"/>
    </g>
    <g clip-path="url(#pdea4f912c9)">
     <use xlink:href="#C1_0_d8b502465d" x="217.691256" y="141.312249" style="fill: #a00000; fill-opacity: 0.5; stroke: #000000; stroke-opacity: 0.5"/>
    </g>
    <g clip-path="url(#pdea4f912c9)">
     <use xlink:href="#C1_0_d8b502465d" x="217.691256" y="75.041513" style="fill: #a00000; fill-opacity: 0.5; stroke: #000000; stroke-opacity: 0.5"/>
    </g>
    <g clip-path="url(#pdea4f912c9)">
     <use xlink:href="#C1_0_d8b502465d" x="217.691256" y="139.019144" style="fill: #a00000; fill-opacity: 0.5; stroke: #000000; stroke-opacity: 0.5"/>
    </g>
    <g clip-path="url(#pdea4f912c9)">
     <use xlink:href="#C1_0_d8b502465d" x="217.691256" y="182.129519" style="fill: #a00000; fill-opacity: 0.5; stroke: #000000; stroke-opacity: 0.5"/>
    </g>
    <g clip-path="url(#pdea4f912c9)">
     <use xlink:href="#C1_0_d8b502465d" x="217.691256" y="174.332962" style="fill: #a00000; fill-opacity: 0.5; stroke: #000000; stroke-opacity: 0.5"/>
    </g>
    <g clip-path="url(#pdea4f912c9)">
     <use xlink:href="#C1_0_d8b502465d" x="217.691256" y="139.707075" style="fill: #a00000; fill-opacity: 0.5; stroke: #000000; stroke-opacity: 0.5"/>
    </g>
    <g clip-path="url(#pdea4f912c9)">
     <use xlink:href="#C1_0_d8b502465d" x="217.691256" y="220.195063" style="fill: #a00000; fill-opacity: 0.5; stroke: #000000; stroke-opacity: 0.5"/>
    </g>
    <g clip-path="url(#pdea4f912c9)">
     <use xlink:href="#C1_0_d8b502465d" x="217.691256" y="18.401818" style="fill: #a00000; fill-opacity: 0.5; stroke: #000000; stroke-opacity: 0.5"/>
    </g>
    <g clip-path="url(#pdea4f912c9)">
     <use xlink:href="#C1_0_d8b502465d" x="217.691256" y="222.258857" style="fill: #a00000; fill-opacity: 0.5; stroke: #000000; stroke-opacity: 0.5"/>
    </g>
    <g clip-path="url(#pdea4f912c9)">
     <use xlink:href="#C1_0_d8b502465d" x="217.691256" y="183.964003" style="fill: #a00000; fill-opacity: 0.5; stroke: #000000; stroke-opacity: 0.5"/>
    </g>
    <g clip-path="url(#pdea4f912c9)">
     <use xlink:href="#C1_0_d8b502465d" x="217.691256" y="128.929482" style="fill: #a00000; fill-opacity: 0.5; stroke: #000000; stroke-opacity: 0.5"/>
    </g>
    <g clip-path="url(#pdea4f912c9)">
     <use xlink:href="#C1_0_d8b502465d" x="217.691256" y="164.47261" style="fill: #a00000; fill-opacity: 0.5; stroke: #000000; stroke-opacity: 0.5"/>
    </g>
    <g clip-path="url(#pdea4f912c9)">
     <use xlink:href="#C1_0_d8b502465d" x="217.691256" y="86.736349" style="fill: #a00000; fill-opacity: 0.5; stroke: #000000; stroke-opacity: 0.5"/>
    </g>
    <g clip-path="url(#pdea4f912c9)">
     <use xlink:href="#C1_0_d8b502465d" x="217.691256" y="67.932887" style="fill: #a00000; fill-opacity: 0.5; stroke: #000000; stroke-opacity: 0.5"/>
    </g>
   </g>
   <g id="line2d_71">
    <defs>
     <path id="m3a3c3c7226" d="M 0 -7.5 
L -7.5 7.5 
L 7.5 7.5 
z
" style="stroke: #000000; stroke-linejoin: miter"/>
    </defs>
    <g clip-path="url(#pdea4f912c9)">
     <use xlink:href="#m3a3c3c7226" x="103.564994" y="164.210541" style="fill: #ffffff; stroke: #000000; stroke-linejoin: miter"/>
    </g>
   </g>
   <g id="line2d_72">
    <g clip-path="url(#pdea4f912c9)">
     <use xlink:href="#m3a3c3c7226" x="217.691256" y="125.063962" style="fill: #ffffff; stroke: #000000; stroke-linejoin: miter"/>
    </g>
   </g>
  </g>
 </g>
 <defs>
  <clipPath id="pdea4f912c9">
   <rect x="47.643125" y="7.2" width="225.97" height="246.44"/>
  </clipPath>
 </defs>
</svg>
