<?xml version="1.0" encoding="utf-8" standalone="no"?>
<!DOCTYPE svg PUBLIC "-//W3C//DTD SVG 1.1//EN"
  "http://www.w3.org/Graphics/SVG/1.1/DTD/svg11.dtd">
<svg xmlns:xlink="http://www.w3.org/1999/xlink" width="237.6pt" height="276.425pt" viewBox="0 0 237.6 276.425" xmlns="http://www.w3.org/2000/svg" version="1.1">
 <metadata>
  <rdf:RDF xmlns:dc="http://purl.org/dc/elements/1.1/" xmlns:cc="http://creativecommons.org/ns#" xmlns:rdf="http://www.w3.org/1999/02/22-rdf-syntax-ns#">
   <cc:Work>
    <dc:type rdf:resource="http://purl.org/dc/dcmitype/StillImage"/>
    <dc:date>2025-10-29T12:08:58.812372</dc:date>
    <dc:format>image/svg+xml</dc:format>
    <dc:creator>
     <cc:Agent>
      <dc:title>Matplotlib v3.10.0, https://matplotlib.org/</dc:title>
     </cc:Agent>
    </dc:creator>
   </cc:Work>
  </rdf:RDF>
 </metadata>
 <defs>
  <style type="text/css">*{stroke-linejoin: round; stroke-linecap: butt}</style>
 </defs>
 <g id="figure_1">
  <g id="patch_1">
   <path d="M 0 276.425 
L 237.6 276.425 
L 237.6 0 
L 0 0 
L 0 276.425 
z
" style="fill: none"/>
  </g>
  <g id="axes_1">
   <g id="patch_2">
    <path d="M 7.2 228.96 
L 230.4 228.96 
L 230.4 7.2 
L 7.2 7.2 
L 7.2 228.96 
z
" style="fill: none"/>
   </g>
   <g id="PathCollection_1">
    <defs>
     <path id="m69df5a25dd" d="M 0 4.743416 
C 1.257969 4.743416 2.464584 4.24362 3.354102 3.354102 
C 4.24362 2.464584 4.743416 1.257969 4.743416 0 
C 4.743416 -1.257969 4.24362 -2.464584 3.354102 -3.354102 
C 2.464584 -4.24362 1.257969 -4.743416 0 -4.743416 
C -1.257969 -4.743416 -2.464584 -4.24362 -3.354102 -3.354102 
C -4.24362 -2.464584 -4.743416 -1.257969 -4.743416 0 
C -4.743416 1.257969 -4.24362 2.464584 -3.354102 3.354102 
C -2.464584 4.24362 -1.257969 4.743416 0 4.743416 
z
" style="stroke: #1f77b4"/>
    </defs>
    <g clip-path="url(#pe057ba4a0a)">
     <use xlink:href="#m69df5a25dd" x="163.777393" y="118.08" style="fill: #1f77b4; stroke: #1f77b4"/>
    </g>
   </g>
   <g id="matplotlib.axis_1">
    <g id="xtick_1">
     <g id="line2d_1">
      <defs>
       <path id="m9c1709c697" d="M 0 0 
L 0 3.5 
" style="stroke: #000000; stroke-width: 0.8"/>
      </defs>
      <g>
       <use xlink:href="#m9c1709c697" x="17.345455" y="228.96" style="stroke: #000000; stroke-width: 0.8"/>
      </g>
     </g>
     <g id="text_1">
      <!-- -0.5 -->
      <g transform="translate(7.45358 245.980938) scale(0.14 -0.14)">
       <defs>
        <path id="ArialNarrow-2d" d="M 166 1375 
L 166 1941 
L 1581 1941 
L 1581 1375 
L 166 1375 
z
" transform="scale(0.015625)"/>
        <path id="ArialNarrow-30" d="M 209 2259 
Q 209 3413 520 4006 
Q 831 4600 1438 4600 
Q 1975 4600 2284 4119 
Q 2659 3538 2659 2259 
Q 2659 1113 2350 517 
Q 2041 -78 1431 -78 
Q 894 -78 551 447 
Q 209 972 209 2259 
z
M 681 2259 
Q 681 1144 895 764 
Q 1109 384 1444 384 
Q 1759 384 1971 768 
Q 2184 1153 2184 2259 
Q 2184 3378 1970 3756 
Q 1756 4134 1416 4134 
Q 1103 4134 892 3750 
Q 681 3366 681 2259 
z
" transform="scale(0.015625)"/>
        <path id="ArialNarrow-2e" d="M 484 0 
L 484 641 
L 1009 641 
L 1009 0 
L 484 0 
z
" transform="scale(0.015625)"/>
        <path id="ArialNarrow-35" d="M 209 1200 
L 694 1250 
Q 750 813 948 598 
Q 1147 384 1409 384 
Q 1738 384 1975 686 
Q 2213 988 2213 1509 
Q 2213 2000 1983 2270 
Q 1753 2541 1406 2541 
Q 1197 2541 1014 2423 
Q 831 2306 725 2097 
L 291 2166 
L 656 4519 
L 2522 4519 
L 2522 3981 
L 1025 3981 
L 822 2750 
Q 1156 3038 1531 3038 
Q 2003 3038 2351 2636 
Q 2700 2234 2700 1553 
Q 2700 881 2351 401 
Q 2003 -78 1416 -78 
Q 928 -78 592 261 
Q 256 600 209 1200 
z
" transform="scale(0.015625)"/>
       </defs>
       <use xlink:href="#ArialNarrow-2d"/>
       <use xlink:href="#ArialNarrow-30" transform="translate(27.294922 0)"/>
       <use xlink:href="#ArialNarrow-2e" transform="translate(72.900391 0)"/>
       <use xlink:href="#ArialNarrow-35" transform="translate(95.703125 0)"/>
      </g>
     </g>
    </g>
    <g id="xtick_2">
     <g id="line2d_2">
      <g>
       <use xlink:href="#m9c1709c697" x="106.738565" y="228.96" style="stroke: #000000; stroke-width: 0.8"/>
      </g>
     </g>
     <g id="text_2">
      <!-- 0 -->
      <g transform="translate(103.545909 245.980938) scale(0.14 -0.14)">
       <use xlink:href="#ArialNarrow-30"/>
      </g>
     </g>
    </g>
    <g id="xtick_3">
     <g id="line2d_3">
      <g>
       <use xlink:href="#m9c1709c697" x="196.131676" y="228.96" style="stroke: #000000; stroke-width: 0.8"/>
      </g>
     </g>
     <g id="text_3">
      <!-- 0.5 -->
      <g transform="translate(188.150582 245.980938) scale(0.14 -0.14)">
       <use xlink:href="#ArialNarrow-30"/>
       <use xlink:href="#ArialNarrow-2e" transform="translate(45.605469 0)"/>
       <use xlink:href="#ArialNarrow-35" transform="translate(68.408203 0)"/>
      </g>
     </g>
    </g>
    <g id="text_4">
     <!-- Cohen's dz -->
     <g transform="translate(82.099688 265.6475) scale(0.18 -0.18)">
      <defs>
       <path id="ArialNarrow-43" d="M 3072 1606 
L 3572 1453 
Q 3406 681 2992 301 
Q 2578 -78 1984 -78 
Q 1463 -78 1092 176 
Q 722 431 486 993 
Q 250 1556 250 2322 
Q 250 3078 486 3601 
Q 722 4125 1125 4392 
Q 1528 4659 2025 4659 
Q 2569 4659 2959 4320 
Q 3350 3981 3506 3325 
L 3019 3184 
Q 2769 4141 2016 4141 
Q 1641 4141 1366 3948 
Q 1091 3756 927 3350 
Q 763 2944 763 2322 
Q 763 1381 1094 911 
Q 1425 441 1975 441 
Q 2381 441 2676 730 
Q 2972 1019 3072 1606 
z
" transform="scale(0.015625)"/>
       <path id="ArialNarrow-6f" d="M 166 1659 
Q 166 2519 527 2956 
Q 888 3394 1441 3394 
Q 1984 3394 2350 2956 
Q 2716 2519 2716 1694 
Q 2716 800 2356 362 
Q 1997 -75 1441 -75 
Q 894 -75 530 364 
Q 166 803 166 1659 
z
M 638 1659 
Q 638 1016 872 702 
Q 1106 388 1453 388 
Q 1778 388 2011 705 
Q 2244 1022 2244 1659 
Q 2244 2300 2009 2614 
Q 1775 2928 1428 2928 
Q 1100 2928 869 2612 
Q 638 2297 638 1659 
z
" transform="scale(0.015625)"/>
       <path id="ArialNarrow-68" d="M 338 0 
L 338 4581 
L 797 4581 
L 797 2938 
Q 959 3166 1164 3280 
Q 1369 3394 1616 3394 
Q 2050 3394 2301 3117 
Q 2553 2841 2553 2103 
L 2553 0 
L 2094 0 
L 2094 2103 
Q 2094 2534 1941 2721 
Q 1788 2909 1519 2909 
Q 1219 2909 1008 2668 
Q 797 2428 797 1816 
L 797 0 
L 338 0 
z
" transform="scale(0.015625)"/>
       <path id="ArialNarrow-65" d="M 2200 1069 
L 2675 997 
Q 2556 466 2245 195 
Q 1934 -75 1475 -75 
Q 897 -75 539 364 
Q 181 803 181 1631 
Q 181 2491 542 2942 
Q 903 3394 1456 3394 
Q 1984 3394 2337 2950 
Q 2691 2506 2691 1666 
L 2688 1516 
L 656 1516 
Q 684 956 915 672 
Q 1147 388 1478 388 
Q 1997 388 2200 1069 
z
M 684 1978 
L 2203 1978 
Q 2172 2409 2019 2622 
Q 1797 2931 1453 2931 
Q 1144 2931 925 2673 
Q 706 2416 684 1978 
z
" transform="scale(0.015625)"/>
       <path id="ArialNarrow-6e" d="M 338 0 
L 338 3319 
L 753 3319 
L 753 2847 
Q 903 3122 1120 3258 
Q 1338 3394 1619 3394 
Q 1838 3394 2023 3308 
Q 2209 3222 2323 3083 
Q 2438 2944 2494 2722 
Q 2550 2500 2550 2041 
L 2550 0 
L 2088 0 
L 2088 2019 
Q 2088 2384 2025 2553 
Q 1963 2722 1830 2814 
Q 1697 2906 1522 2906 
Q 1191 2906 994 2659 
Q 797 2413 797 1813 
L 797 0 
L 338 0 
z
" transform="scale(0.015625)"/>
       <path id="ArialNarrow-27" d="M 341 2959 
L 222 3816 
L 222 4581 
L 747 4581 
L 747 3816 
L 625 2959 
L 341 2959 
z
" transform="scale(0.015625)"/>
       <path id="ArialNarrow-73" d="M 163 991 
L 619 1078 
Q 659 728 840 558 
Q 1022 388 1322 388 
Q 1622 388 1786 536 
Q 1950 684 1950 913 
Q 1950 1109 1809 1219 
Q 1713 1294 1341 1406 
Q 803 1572 622 1687 
Q 441 1803 341 1997 
Q 241 2191 241 2438 
Q 241 2863 512 3128 
Q 784 3394 1266 3394 
Q 1569 3394 1798 3284 
Q 2028 3175 2150 2990 
Q 2272 2806 2319 2463 
L 1869 2388 
Q 1806 2931 1278 2931 
Q 978 2931 831 2811 
Q 684 2691 684 2503 
Q 684 2319 825 2213 
Q 909 2150 1325 2013 
Q 1897 1828 2065 1720 
Q 2234 1613 2328 1427 
Q 2422 1241 2422 984 
Q 2422 509 2120 215 
Q 1819 -78 1297 -78 
Q 319 -78 163 991 
z
" transform="scale(0.015625)"/>
       <path id="ArialNarrow-20" transform="scale(0.015625)"/>
       <path id="ArialNarrow-64" d="M 2103 0 
L 2103 419 
Q 1978 178 1781 51 
Q 1584 -75 1356 -75 
Q 875 -75 523 379 
Q 172 834 172 1659 
Q 172 2225 328 2619 
Q 484 3013 745 3203 
Q 1006 3394 1325 3394 
Q 1553 3394 1748 3273 
Q 1944 3153 2072 2938 
L 2072 4581 
L 2534 4581 
L 2534 0 
L 2103 0 
z
M 644 1656 
Q 644 1013 867 700 
Q 1091 388 1388 388 
Q 1681 388 1897 688 
Q 2113 988 2113 1594 
Q 2113 2291 1897 2611 
Q 1681 2931 1353 2931 
Q 1063 2931 853 2623 
Q 644 2316 644 1656 
z
" transform="scale(0.015625)"/>
       <path id="ArialNarrow-7a" d="M 103 0 
L 103 456 
L 1838 2881 
Q 1541 2863 1316 2863 
L 206 2863 
L 206 3319 
L 2431 3319 
L 2431 2947 
L 956 841 
L 672 456 
Q 981 484 1253 484 
L 2513 484 
L 2513 0 
L 103 0 
z
" transform="scale(0.015625)"/>
      </defs>
      <use xlink:href="#ArialNarrow-43"/>
      <use xlink:href="#ArialNarrow-6f" transform="translate(59.179688 0)"/>
      <use xlink:href="#ArialNarrow-68" transform="translate(104.785156 0)"/>
      <use xlink:href="#ArialNarrow-65" transform="translate(150.390625 0)"/>
      <use xlink:href="#ArialNarrow-6e" transform="translate(195.996094 0)"/>
      <use xlink:href="#ArialNarrow-27" transform="translate(241.601562 0)"/>
      <use xlink:href="#ArialNarrow-73" transform="translate(257.324219 0)"/>
      <use xlink:href="#ArialNarrow-20" transform="translate(298.339844 0)"/>
      <use xlink:href="#ArialNarrow-64" transform="translate(321.142578 0)"/>
      <use xlink:href="#ArialNarrow-7a" transform="translate(366.748047 0)"/>
     </g>
    </g>
   </g>
   <g id="matplotlib.axis_2"/>
   <g id="line2d_4">
    <path d="M 107.300242 118.08 
L 220.254545 118.08 
" clip-path="url(#pe057ba4a0a)" style="fill: none; stroke: #1f77b4; stroke-width: 2; stroke-linecap: square"/>
   </g>
   <g id="line2d_5">
    <path d="M 17.345455 228.96 
L 17.345455 7.2 
" clip-path="url(#pe057ba4a0a)" style="fill: none; stroke-dasharray: 5.55,2.4; stroke-dashoffset: 0; stroke: #000000; stroke-width: 1.5"/>
   </g>
   <g id="line2d_6">
    <path d="M 196.131676 228.96 
L 196.131676 7.2 
" clip-path="url(#pe057ba4a0a)" style="fill: none; stroke-dasharray: 5.55,2.4; stroke-dashoffset: 0; stroke: #000000; stroke-width: 1.5"/>
   </g>
   <g id="patch_3">
    <path d="M 7.2 228.96 
L 7.2 7.2 
" style="fill: none; stroke: #000000; stroke-width: 0.8; stroke-linejoin: miter; stroke-linecap: square"/>
   </g>
   <g id="patch_4">
    <path d="M 230.4 228.96 
L 230.4 7.2 
" style="fill: none; stroke: #000000; stroke-width: 0.8; stroke-linejoin: miter; stroke-linecap: square"/>
   </g>
   <g id="patch_5">
    <path d="M 7.2 228.96 
L 230.4 228.96 
" style="fill: none; stroke: #000000; stroke-width: 0.8; stroke-linejoin: miter; stroke-linecap: square"/>
   </g>
   <g id="patch_6">
    <path d="M 7.2 7.2 
L 230.4 7.2 
" style="fill: none; stroke: #000000; stroke-width: 0.8; stroke-linejoin: miter; stroke-linecap: square"/>
   </g>
  </g>
 </g>
 <defs>
  <clipPath id="pe057ba4a0a">
   <rect x="7.2" y="7.2" width="223.2" height="221.76"/>
  </clipPath>
 </defs>
</svg>
