<?xml version="1.0" encoding="utf-8" standalone="no"?>
<!DOCTYPE svg PUBLIC "-//W3C//DTD SVG 1.1//EN"
  "http://www.w3.org/Graphics/SVG/1.1/DTD/svg11.dtd">
<svg xmlns:xlink="http://www.w3.org/1999/xlink" width="280.55375pt" height="280.643438pt" viewBox="0 0 280.55375 280.643438" xmlns="http://www.w3.org/2000/svg" version="1.1">
 <metadata>
  <rdf:RDF xmlns:dc="http://purl.org/dc/elements/1.1/" xmlns:cc="http://creativecommons.org/ns#" xmlns:rdf="http://www.w3.org/1999/02/22-rdf-syntax-ns#">
   <cc:Work>
    <dc:type rdf:resource="http://purl.org/dc/dcmitype/StillImage"/>
    <dc:date>2025-11-22T13:29:32.086743</dc:date>
    <dc:format>image/svg+xml</dc:format>
    <dc:creator>
     <cc:Agent>
      <dc:title>Matplotlib v3.10.0, https://matplotlib.org/</dc:title>
     </cc:Agent>
    </dc:creator>
   </cc:Work>
  </rdf:RDF>
 </metadata>
 <defs>
  <style type="text/css">*{stroke-linejoin: round; stroke-linecap: butt}</style>
 </defs>
 <g id="figure_1">
  <g id="patch_1">
   <path d="M 0 280.643438 
L 280.55375 280.643438 
L 280.55375 0 
L 0 0 
L 0 280.643438 
z
" style="fill: none"/>
  </g>
  <g id="axes_1">
   <g id="patch_2">
    <path d="M 50.62375 253.64 
L 273.35375 253.64 
L 273.35375 7.2 
L 50.62375 7.2 
L 50.62375 253.64 
z
" style="fill: none"/>
   </g>
   <g id="matplotlib.axis_1">
    <g id="xtick_1">
     <g id="line2d_1">
      <defs>
       <path id="mca736080e0" d="M 0 0 
L 0 3.5 
" style="stroke: #000000; stroke-width: 0.8"/>
      </defs>
      <g>
       <use xlink:href="#mca736080e0" x="124.867083" y="253.64" style="stroke: #000000; stroke-width: 0.8"/>
      </g>
     </g>
     <g id="text_1">
      <!-- Placebo on -->
      <g transform="translate(96.140833 270.660937) scale(0.14 -0.14)">
       <defs>
        <path id="ArialNarrow-50" d="M 406 0 
L 406 4581 
L 1822 4581 
Q 2322 4581 2559 4494 
Q 2884 4375 3078 4053 
Q 3272 3731 3272 3263 
Q 3272 2644 2956 2253 
Q 2641 1863 1866 1863 
L 903 1863 
L 903 0 
L 406 0 
z
M 903 2403 
L 1875 2403 
Q 2334 2403 2546 2611 
Q 2759 2819 2759 3238 
Q 2759 3509 2654 3703 
Q 2550 3897 2401 3969 
Q 2253 4041 1866 4041 
L 903 4041 
L 903 2403 
z
" transform="scale(0.015625)"/>
        <path id="ArialNarrow-6c" d="M 325 0 
L 325 4581 
L 784 4581 
L 784 0 
L 325 0 
z
" transform="scale(0.015625)"/>
        <path id="ArialNarrow-61" d="M 2113 409 
Q 1881 169 1631 47 
Q 1381 -75 1113 -75 
Q 688 -75 434 181 
Q 181 438 181 872 
Q 181 1159 300 1381 
Q 419 1603 625 1728 
Q 831 1853 1250 1913 
Q 1813 1994 2075 2106 
L 2078 2250 
Q 2078 2591 1956 2728 
Q 1784 2928 1428 2928 
Q 1106 2928 947 2795 
Q 788 2663 713 2297 
L 259 2372 
Q 356 2906 651 3150 
Q 947 3394 1497 3394 
Q 1925 3394 2169 3233 
Q 2413 3072 2477 2834 
Q 2541 2597 2541 2141 
L 2541 1391 
Q 2541 603 2570 398 
Q 2600 194 2688 0 
L 2206 0 
Q 2134 172 2113 409 
z
M 2075 1666 
Q 1822 1541 1322 1453 
Q 1031 1403 915 1339 
Q 800 1275 736 1158 
Q 672 1041 672 888 
Q 672 650 819 508 
Q 966 366 1225 366 
Q 1472 366 1673 494 
Q 1875 622 1975 836 
Q 2075 1050 2075 1459 
L 2075 1666 
z
" transform="scale(0.015625)"/>
        <path id="ArialNarrow-63" d="M 2122 1216 
L 2575 1144 
Q 2497 550 2183 237 
Q 1869 -75 1428 -75 
Q 894 -75 548 364 
Q 203 803 203 1663 
Q 203 2528 551 2961 
Q 900 3394 1447 3394 
Q 1869 3394 2158 3131 
Q 2447 2869 2528 2344 
L 2081 2259 
Q 2016 2597 1853 2764 
Q 1691 2931 1463 2931 
Q 1122 2931 898 2629 
Q 675 2328 675 1672 
Q 675 994 889 691 
Q 1103 388 1438 388 
Q 1700 388 1886 589 
Q 2072 791 2122 1216 
z
" transform="scale(0.015625)"/>
        <path id="ArialNarrow-65" d="M 2200 1069 
L 2675 997 
Q 2556 466 2245 195 
Q 1934 -75 1475 -75 
Q 897 -75 539 364 
Q 181 803 181 1631 
Q 181 2491 542 2942 
Q 903 3394 1456 3394 
Q 1984 3394 2337 2950 
Q 2691 2506 2691 1666 
L 2688 1516 
L 656 1516 
Q 684 956 915 672 
Q 1147 388 1478 388 
Q 1997 388 2200 1069 
z
M 684 1978 
L 2203 1978 
Q 2172 2409 2019 2622 
Q 1797 2931 1453 2931 
Q 1144 2931 925 2673 
Q 706 2416 684 1978 
z
" transform="scale(0.015625)"/>
        <path id="ArialNarrow-62" d="M 763 0 
L 334 0 
L 334 4581 
L 794 4581 
L 794 2947 
Q 941 3172 1127 3283 
Q 1313 3394 1541 3394 
Q 1859 3394 2120 3203 
Q 2381 3013 2537 2625 
Q 2694 2238 2694 1684 
Q 2694 841 2341 383 
Q 1988 -75 1516 -75 
Q 1278 -75 1089 48 
Q 900 172 763 416 
L 763 0 
z
M 756 1684 
Q 756 1169 850 912 
Q 944 656 1116 522 
Q 1288 388 1497 388 
Q 1781 388 2001 708 
Q 2222 1028 2222 1666 
Q 2222 2319 2009 2625 
Q 1797 2931 1488 2931 
Q 1203 2931 979 2611 
Q 756 2291 756 1684 
z
" transform="scale(0.015625)"/>
        <path id="ArialNarrow-6f" d="M 166 1659 
Q 166 2519 527 2956 
Q 888 3394 1441 3394 
Q 1984 3394 2350 2956 
Q 2716 2519 2716 1694 
Q 2716 800 2356 362 
Q 1997 -75 1441 -75 
Q 894 -75 530 364 
Q 166 803 166 1659 
z
M 638 1659 
Q 638 1016 872 702 
Q 1106 388 1453 388 
Q 1778 388 2011 705 
Q 2244 1022 2244 1659 
Q 2244 2300 2009 2614 
Q 1775 2928 1428 2928 
Q 1100 2928 869 2612 
Q 638 2297 638 1659 
z
" transform="scale(0.015625)"/>
        <path id="ArialNarrow-20" transform="scale(0.015625)"/>
        <path id="ArialNarrow-6e" d="M 338 0 
L 338 3319 
L 753 3319 
L 753 2847 
Q 903 3122 1120 3258 
Q 1338 3394 1619 3394 
Q 1838 3394 2023 3308 
Q 2209 3222 2323 3083 
Q 2438 2944 2494 2722 
Q 2550 2500 2550 2041 
L 2550 0 
L 2088 0 
L 2088 2019 
Q 2088 2384 2025 2553 
Q 1963 2722 1830 2814 
Q 1697 2906 1522 2906 
Q 1191 2906 994 2659 
Q 797 2413 797 1813 
L 797 0 
L 338 0 
z
" transform="scale(0.015625)"/>
       </defs>
       <use xlink:href="#ArialNarrow-50"/>
       <use xlink:href="#ArialNarrow-6c" transform="translate(54.6875 0)"/>
       <use xlink:href="#ArialNarrow-61" transform="translate(72.900391 0)"/>
       <use xlink:href="#ArialNarrow-63" transform="translate(118.505859 0)"/>
       <use xlink:href="#ArialNarrow-65" transform="translate(159.521484 0)"/>
       <use xlink:href="#ArialNarrow-62" transform="translate(205.126953 0)"/>
       <use xlink:href="#ArialNarrow-6f" transform="translate(250.732422 0)"/>
       <use xlink:href="#ArialNarrow-20" transform="translate(296.337891 0)"/>
       <use xlink:href="#ArialNarrow-6f" transform="translate(319.140625 0)"/>
       <use xlink:href="#ArialNarrow-6e" transform="translate(364.746094 0)"/>
      </g>
     </g>
    </g>
    <g id="xtick_2">
     <g id="line2d_2">
      <g>
       <use xlink:href="#mca736080e0" x="199.110417" y="253.64" style="stroke: #000000; stroke-width: 0.8"/>
      </g>
     </g>
     <g id="text_2">
      <!-- Placebo off -->
      <g transform="translate(170.48151 270.660937) scale(0.14 -0.14)">
       <defs>
        <path id="ArialNarrow-66" d="M 469 0 
L 469 2881 
L 59 2881 
L 59 3319 
L 469 3319 
L 469 3672 
Q 469 4063 550 4258 
Q 631 4453 798 4556 
Q 966 4659 1219 4659 
Q 1416 4659 1650 4603 
L 1581 4113 
Q 1438 4144 1309 4144 
Q 1103 4144 1014 4036 
Q 925 3928 925 3625 
L 925 3319 
L 1456 3319 
L 1456 2881 
L 925 2881 
L 925 0 
L 469 0 
z
" transform="scale(0.015625)"/>
       </defs>
       <use xlink:href="#ArialNarrow-50"/>
       <use xlink:href="#ArialNarrow-6c" transform="translate(54.6875 0)"/>
       <use xlink:href="#ArialNarrow-61" transform="translate(72.900391 0)"/>
       <use xlink:href="#ArialNarrow-63" transform="translate(118.505859 0)"/>
       <use xlink:href="#ArialNarrow-65" transform="translate(159.521484 0)"/>
       <use xlink:href="#ArialNarrow-62" transform="translate(205.126953 0)"/>
       <use xlink:href="#ArialNarrow-6f" transform="translate(250.732422 0)"/>
       <use xlink:href="#ArialNarrow-20" transform="translate(296.337891 0)"/>
       <use xlink:href="#ArialNarrow-6f" transform="translate(319.140625 0)"/>
       <use xlink:href="#ArialNarrow-66" transform="translate(364.746094 0)"/>
       <use xlink:href="#ArialNarrow-66" transform="translate(386.173828 0)"/>
      </g>
     </g>
    </g>
   </g>
   <g id="matplotlib.axis_2">
    <g id="ytick_1">
     <g id="line2d_3">
      <defs>
       <path id="m7adc468d68" d="M 0 0 
L -3.5 0 
" style="stroke: #000000; stroke-width: 0.8"/>
      </defs>
      <g>
       <use xlink:href="#m7adc468d68" x="50.62375" y="217.545253" style="stroke: #000000; stroke-width: 0.8"/>
      </g>
     </g>
     <g id="text_3">
      <!-- 0.5 -->
      <g transform="translate(27.661563 222.555721) scale(0.14 -0.14)">
       <defs>
        <path id="ArialNarrow-30" d="M 209 2259 
Q 209 3413 520 4006 
Q 831 4600 1438 4600 
Q 1975 4600 2284 4119 
Q 2659 3538 2659 2259 
Q 2659 1113 2350 517 
Q 2041 -78 1431 -78 
Q 894 -78 551 447 
Q 209 972 209 2259 
z
M 681 2259 
Q 681 1144 895 764 
Q 1109 384 1444 384 
Q 1759 384 1971 768 
Q 2184 1153 2184 2259 
Q 2184 3378 1970 3756 
Q 1756 4134 1416 4134 
Q 1103 4134 892 3750 
Q 681 3366 681 2259 
z
" transform="scale(0.015625)"/>
        <path id="ArialNarrow-2e" d="M 484 0 
L 484 641 
L 1009 641 
L 1009 0 
L 484 0 
z
" transform="scale(0.015625)"/>
        <path id="ArialNarrow-35" d="M 209 1200 
L 694 1250 
Q 750 813 948 598 
Q 1147 384 1409 384 
Q 1738 384 1975 686 
Q 2213 988 2213 1509 
Q 2213 2000 1983 2270 
Q 1753 2541 1406 2541 
Q 1197 2541 1014 2423 
Q 831 2306 725 2097 
L 291 2166 
L 656 4519 
L 2522 4519 
L 2522 3981 
L 1025 3981 
L 822 2750 
Q 1156 3038 1531 3038 
Q 2003 3038 2351 2636 
Q 2700 2234 2700 1553 
Q 2700 881 2351 401 
Q 2003 -78 1416 -78 
Q 928 -78 592 261 
Q 256 600 209 1200 
z
" transform="scale(0.015625)"/>
       </defs>
       <use xlink:href="#ArialNarrow-30"/>
       <use xlink:href="#ArialNarrow-2e" transform="translate(45.605469 0)"/>
       <use xlink:href="#ArialNarrow-35" transform="translate(68.408203 0)"/>
      </g>
     </g>
    </g>
    <g id="ytick_2">
     <g id="line2d_4">
      <g>
       <use xlink:href="#m7adc468d68" x="50.62375" y="177.716566" style="stroke: #000000; stroke-width: 0.8"/>
      </g>
     </g>
     <g id="text_4">
      <!-- 0.6 -->
      <g transform="translate(27.661563 182.727034) scale(0.14 -0.14)">
       <defs>
        <path id="ArialNarrow-36" d="M 2603 3459 
L 2144 3416 
Q 2078 3769 1950 3919 
Q 1766 4138 1506 4138 
Q 1103 4138 859 3638 
Q 650 3206 647 2363 
Q 806 2663 1047 2817 
Q 1288 2972 1556 2972 
Q 2003 2972 2336 2567 
Q 2669 2163 2669 1484 
Q 2669 1025 2501 651 
Q 2334 278 2071 100 
Q 1809 -78 1494 -78 
Q 925 -78 556 434 
Q 188 947 188 2144 
Q 188 3472 566 4036 
Q 944 4600 1534 4600 
Q 1963 4600 2252 4308 
Q 2541 4016 2603 3459 
z
M 719 1484 
Q 719 988 953 686 
Q 1188 384 1497 384 
Q 1769 384 1983 668 
Q 2197 953 2197 1450 
Q 2197 1938 1984 2206 
Q 1772 2475 1466 2475 
Q 1166 2475 942 2208 
Q 719 1941 719 1484 
z
" transform="scale(0.015625)"/>
       </defs>
       <use xlink:href="#ArialNarrow-30"/>
       <use xlink:href="#ArialNarrow-2e" transform="translate(45.605469 0)"/>
       <use xlink:href="#ArialNarrow-36" transform="translate(68.408203 0)"/>
      </g>
     </g>
    </g>
    <g id="ytick_3">
     <g id="line2d_5">
      <g>
       <use xlink:href="#m7adc468d68" x="50.62375" y="137.887879" style="stroke: #000000; stroke-width: 0.8"/>
      </g>
     </g>
     <g id="text_5">
      <!-- 0.7 -->
      <g transform="translate(27.661563 142.898348) scale(0.14 -0.14)">
       <defs>
        <path id="ArialNarrow-37" d="M 241 3981 
L 241 4522 
L 2672 4522 
L 2672 4084 
Q 2128 3378 1715 2245 
Q 1303 1113 1241 0 
L 766 0 
Q 775 575 948 1340 
Q 1122 2106 1425 2800 
Q 1728 3494 2078 3981 
L 241 3981 
z
" transform="scale(0.015625)"/>
       </defs>
       <use xlink:href="#ArialNarrow-30"/>
       <use xlink:href="#ArialNarrow-2e" transform="translate(45.605469 0)"/>
       <use xlink:href="#ArialNarrow-37" transform="translate(68.408203 0)"/>
      </g>
     </g>
    </g>
    <g id="ytick_4">
     <g id="line2d_6">
      <g>
       <use xlink:href="#m7adc468d68" x="50.62375" y="98.059192" style="stroke: #000000; stroke-width: 0.8"/>
      </g>
     </g>
     <g id="text_6">
      <!-- 0.8 -->
      <g transform="translate(27.661563 103.069661) scale(0.14 -0.14)">
       <defs>
        <path id="ArialNarrow-38" d="M 919 2484 
Q 641 2609 498 2842 
Q 356 3075 356 3422 
Q 356 3944 664 4272 
Q 972 4600 1438 4600 
Q 1906 4600 2217 4265 
Q 2528 3931 2528 3403 
Q 2528 3072 2390 2842 
Q 2253 2613 1975 2484 
Q 2316 2350 2498 2050 
Q 2681 1750 2681 1306 
Q 2681 694 2326 308 
Q 1972 -78 1447 -78 
Q 916 -78 561 308 
Q 206 694 206 1322 
Q 206 1781 395 2079 
Q 584 2378 919 2484 
z
M 831 3438 
Q 831 3100 1009 2900 
Q 1188 2700 1447 2700 
Q 1700 2700 1878 2897 
Q 2056 3094 2056 3406 
Q 2056 3728 1873 3933 
Q 1691 4138 1441 4138 
Q 1191 4138 1011 3938 
Q 831 3738 831 3438 
z
M 678 1322 
Q 678 900 904 642 
Q 1131 384 1447 384 
Q 1766 384 1987 634 
Q 2209 884 2209 1303 
Q 2209 1725 1981 1983 
Q 1753 2241 1434 2241 
Q 1119 2241 898 1984 
Q 678 1728 678 1322 
z
" transform="scale(0.015625)"/>
       </defs>
       <use xlink:href="#ArialNarrow-30"/>
       <use xlink:href="#ArialNarrow-2e" transform="translate(45.605469 0)"/>
       <use xlink:href="#ArialNarrow-38" transform="translate(68.408203 0)"/>
      </g>
     </g>
    </g>
    <g id="ytick_5">
     <g id="line2d_7">
      <g>
       <use xlink:href="#m7adc468d68" x="50.62375" y="58.230505" style="stroke: #000000; stroke-width: 0.8"/>
      </g>
     </g>
     <g id="text_7">
      <!-- 0.9 -->
      <g transform="translate(27.661563 63.240974) scale(0.14 -0.14)">
       <defs>
        <path id="ArialNarrow-39" d="M 278 1059 
L 722 1109 
Q 828 384 1347 384 
Q 1578 384 1767 542 
Q 1956 700 2087 1103 
Q 2219 1506 2219 2044 
L 2219 2156 
Q 2075 1878 1831 1715 
Q 1588 1553 1334 1553 
Q 875 1553 542 1954 
Q 209 2356 209 3053 
Q 209 3772 554 4186 
Q 900 4600 1394 4600 
Q 1744 4600 2047 4369 
Q 2350 4138 2515 3688 
Q 2681 3238 2681 2391 
Q 2681 1447 2503 925 
Q 2325 403 2020 162 
Q 1716 -78 1338 -78 
Q 909 -78 621 214 
Q 334 506 278 1059 
z
M 2169 3081 
Q 2169 3572 1950 3853 
Q 1731 4134 1447 4134 
Q 1150 4134 917 3834 
Q 684 3534 684 3034 
Q 684 2584 906 2317 
Q 1128 2050 1438 2050 
Q 1744 2050 1956 2319 
Q 2169 2588 2169 3081 
z
" transform="scale(0.015625)"/>
       </defs>
       <use xlink:href="#ArialNarrow-30"/>
       <use xlink:href="#ArialNarrow-2e" transform="translate(45.605469 0)"/>
       <use xlink:href="#ArialNarrow-39" transform="translate(68.408203 0)"/>
      </g>
     </g>
    </g>
    <g id="ytick_6">
     <g id="line2d_8">
      <g>
       <use xlink:href="#m7adc468d68" x="50.62375" y="18.401818" style="stroke: #000000; stroke-width: 0.8"/>
      </g>
     </g>
     <g id="text_8">
      <!-- 1.0 -->
      <g transform="translate(27.661563 23.412287) scale(0.14 -0.14)">
       <defs>
        <path id="ArialNarrow-31" d="M 1947 0 
L 1484 0 
L 1484 3584 
Q 1325 3397 1056 3201 
Q 788 3006 563 2906 
L 563 3450 
Q 944 3669 1236 3984 
Q 1528 4300 1647 4600 
L 1947 4600 
L 1947 0 
z
" transform="scale(0.015625)"/>
       </defs>
       <use xlink:href="#ArialNarrow-31"/>
       <use xlink:href="#ArialNarrow-2e" transform="translate(45.605469 0)"/>
       <use xlink:href="#ArialNarrow-30" transform="translate(68.408203 0)"/>
      </g>
     </g>
    </g>
    <g id="text_9">
     <!-- Proporition correct -->
     <g transform="translate(20.084062 190.72) rotate(-90) scale(0.18 -0.18)">
      <defs>
       <path id="ArialNarrow-72" d="M 338 0 
L 338 3319 
L 753 3319 
L 753 2816 
Q 913 3166 1045 3280 
Q 1178 3394 1344 3394 
Q 1575 3394 1816 3213 
L 1659 2691 
Q 1488 2813 1325 2813 
Q 1178 2813 1056 2709 
Q 934 2606 884 2422 
Q 797 2100 797 1738 
L 797 0 
L 338 0 
z
" transform="scale(0.015625)"/>
       <path id="ArialNarrow-70" d="M 338 -1272 
L 338 3319 
L 759 3319 
L 759 2888 
Q 916 3156 1106 3275 
Q 1297 3394 1544 3394 
Q 1866 3394 2125 3203 
Q 2384 3013 2542 2623 
Q 2700 2234 2700 1688 
Q 2700 841 2345 383 
Q 1991 -75 1513 -75 
Q 1300 -75 1115 34 
Q 931 144 797 344 
L 797 -1272 
L 338 -1272 
z
M 753 1641 
Q 753 997 968 692 
Q 1184 388 1491 388 
Q 1784 388 2006 703 
Q 2228 1019 2228 1678 
Q 2228 2328 2012 2640 
Q 1797 2953 1488 2953 
Q 1209 2953 981 2617 
Q 753 2281 753 1641 
z
" transform="scale(0.015625)"/>
       <path id="ArialNarrow-69" d="M 338 3934 
L 338 4581 
L 797 4581 
L 797 3934 
L 338 3934 
z
M 338 0 
L 338 3319 
L 797 3319 
L 797 0 
L 338 0 
z
" transform="scale(0.015625)"/>
       <path id="ArialNarrow-74" d="M 1366 503 
L 1428 6 
Q 1238 -44 1084 -44 
Q 844 -44 697 51 
Q 550 147 495 312 
Q 441 478 441 972 
L 441 2881 
L 103 2881 
L 103 3319 
L 441 3319 
L 441 4141 
L 900 4478 
L 900 3319 
L 1366 3319 
L 1366 2881 
L 900 2881 
L 900 941 
Q 900 672 941 594 
Q 1000 481 1163 481 
Q 1241 481 1366 503 
z
" transform="scale(0.015625)"/>
      </defs>
      <use xlink:href="#ArialNarrow-50"/>
      <use xlink:href="#ArialNarrow-72" transform="translate(54.6875 0)"/>
      <use xlink:href="#ArialNarrow-6f" transform="translate(81.982422 0)"/>
      <use xlink:href="#ArialNarrow-70" transform="translate(127.587891 0)"/>
      <use xlink:href="#ArialNarrow-6f" transform="translate(173.193359 0)"/>
      <use xlink:href="#ArialNarrow-72" transform="translate(218.798828 0)"/>
      <use xlink:href="#ArialNarrow-69" transform="translate(246.09375 0)"/>
      <use xlink:href="#ArialNarrow-74" transform="translate(264.306641 0)"/>
      <use xlink:href="#ArialNarrow-69" transform="translate(287.109375 0)"/>
      <use xlink:href="#ArialNarrow-6f" transform="translate(305.322266 0)"/>
      <use xlink:href="#ArialNarrow-6e" transform="translate(350.927734 0)"/>
      <use xlink:href="#ArialNarrow-20" transform="translate(396.533203 0)"/>
      <use xlink:href="#ArialNarrow-63" transform="translate(419.335938 0)"/>
      <use xlink:href="#ArialNarrow-6f" transform="translate(460.351562 0)"/>
      <use xlink:href="#ArialNarrow-72" transform="translate(505.957031 0)"/>
      <use xlink:href="#ArialNarrow-72" transform="translate(533.251953 0)"/>
      <use xlink:href="#ArialNarrow-65" transform="translate(560.546875 0)"/>
      <use xlink:href="#ArialNarrow-63" transform="translate(606.152344 0)"/>
      <use xlink:href="#ArialNarrow-74" transform="translate(647.167969 0)"/>
     </g>
    </g>
   </g>
   <g id="patch_3">
    <path d="M 95.16975 167.759394 
L 154.564417 167.759394 
L 154.564417 93.080606 
L 95.16975 93.080606 
L 95.16975 167.759394 
z
" clip-path="url(#pa9699321f1)" style="fill: #2e7ba7; stroke: #303030; stroke-linejoin: miter"/>
   </g>
   <g id="line2d_9">
    <path d="M 124.867083 167.759394 
L 124.867083 242.438182 
" clip-path="url(#pa9699321f1)" style="fill: none; stroke: #303030"/>
   </g>
   <g id="line2d_10">
    <path d="M 124.867083 93.080606 
L 124.867083 18.401818 
" clip-path="url(#pa9699321f1)" style="fill: none; stroke: #303030"/>
   </g>
   <g id="patch_4">
    <path d="M 169.413083 142.866465 
L 228.80775 142.866465 
L 228.80775 43.294747 
L 169.413083 43.294747 
L 169.413083 142.866465 
z
" clip-path="url(#pa9699321f1)" style="fill: #8c1414; stroke: #303030; stroke-linejoin: miter"/>
   </g>
   <g id="line2d_11">
    <path d="M 199.110417 142.866465 
L 199.110417 217.545253 
" clip-path="url(#pa9699321f1)" style="fill: none; stroke: #303030"/>
   </g>
   <g id="line2d_12">
    <path d="M 199.110417 43.294747 
L 199.110417 18.401818 
" clip-path="url(#pa9699321f1)" style="fill: none; stroke: #303030"/>
   </g>
   <g id="line2d_13">
    <path d="M 124.434348 18.401818 
L 205.033797 43.294747 
" clip-path="url(#pa9699321f1)" style="fill: none; stroke: #808080; stroke-opacity: 0.5; stroke-width: 1.5; stroke-linecap: square"/>
   </g>
   <g id="line2d_14">
    <path d="M 125.103853 142.866465 
L 197.722942 117.973535 
" clip-path="url(#pa9699321f1)" style="fill: none; stroke: #808080; stroke-opacity: 0.5; stroke-width: 1.5; stroke-linecap: square"/>
   </g>
   <g id="line2d_15">
    <path d="M 130.4692 192.652323 
L 197.465136 189.09619 
" clip-path="url(#pa9699321f1)" style="fill: none; stroke: #808080; stroke-opacity: 0.5; stroke-width: 1.5; stroke-linecap: square"/>
   </g>
   <g id="line2d_16">
    <path d="M 130.333239 242.438182 
L 200.57202 217.545253 
" clip-path="url(#pa9699321f1)" style="fill: none; stroke: #808080; stroke-opacity: 0.5; stroke-width: 1.5; stroke-linecap: square"/>
   </g>
   <g id="line2d_17">
    <path d="M 123.593411 43.294747 
L 199.720719 93.080606 
" clip-path="url(#pa9699321f1)" style="fill: none; stroke: #808080; stroke-opacity: 0.5; stroke-width: 1.5; stroke-linecap: square"/>
   </g>
   <g id="line2d_18">
    <path d="M 127.841604 18.401818 
L 195.574903 43.294747 
" clip-path="url(#pa9699321f1)" style="fill: none; stroke: #808080; stroke-opacity: 0.5; stroke-width: 1.5; stroke-linecap: square"/>
   </g>
   <g id="line2d_19">
    <path d="M 126.719027 142.866465 
L 194.472555 142.866465 
" clip-path="url(#pa9699321f1)" style="fill: none; stroke: #808080; stroke-opacity: 0.5; stroke-width: 1.5; stroke-linecap: square"/>
   </g>
   <g id="line2d_20">
    <path d="M 126.727685 43.294747 
L 201.693784 18.401818 
" clip-path="url(#pa9699321f1)" style="fill: none; stroke: #808080; stroke-opacity: 0.5; stroke-width: 1.5; stroke-linecap: square"/>
   </g>
   <g id="line2d_21">
    <path d="M 128.274521 93.080606 
L 200.980072 167.759394 
" clip-path="url(#pa9699321f1)" style="fill: none; stroke: #808080; stroke-opacity: 0.5; stroke-width: 1.5; stroke-linecap: square"/>
   </g>
   <g id="line2d_22">
    <path d="M 118.840833 43.294747 
L 197.087617 68.187677 
" clip-path="url(#pa9699321f1)" style="fill: none; stroke: #808080; stroke-opacity: 0.5; stroke-width: 1.5; stroke-linecap: square"/>
   </g>
   <g id="line2d_23">
    <path d="M 121.335284 142.866465 
L 200.380456 43.294747 
" clip-path="url(#pa9699321f1)" style="fill: none; stroke: #808080; stroke-opacity: 0.5; stroke-width: 1.5; stroke-linecap: square"/>
   </g>
   <g id="line2d_24">
    <path d="M 129.726654 43.294747 
L 198.872862 68.187677 
" clip-path="url(#pa9699321f1)" style="fill: none; stroke: #808080; stroke-opacity: 0.5; stroke-width: 1.5; stroke-linecap: square"/>
   </g>
   <g id="line2d_25">
    <path d="M 124.946436 142.866465 
L 200.7703 142.866465 
" clip-path="url(#pa9699321f1)" style="fill: none; stroke: #808080; stroke-opacity: 0.5; stroke-width: 1.5; stroke-linecap: square"/>
   </g>
   <g id="line2d_26">
    <path d="M 126.499138 117.973535 
L 199.111206 142.866465 
" clip-path="url(#pa9699321f1)" style="fill: none; stroke: #808080; stroke-opacity: 0.5; stroke-width: 1.5; stroke-linecap: square"/>
   </g>
   <g id="line2d_27">
    <path d="M 125.936264 93.080606 
L 203.501506 93.080606 
" clip-path="url(#pa9699321f1)" style="fill: none; stroke: #808080; stroke-opacity: 0.5; stroke-width: 1.5; stroke-linecap: square"/>
   </g>
   <g id="line2d_28">
    <path d="M 123.98794 217.545253 
L 203.578057 167.759394 
" clip-path="url(#pa9699321f1)" style="fill: none; stroke: #808080; stroke-opacity: 0.5; stroke-width: 1.5; stroke-linecap: square"/>
   </g>
   <g id="line2d_29">
    <path d="M 121.704607 117.973535 
L 200.578255 192.652323 
" clip-path="url(#pa9699321f1)" style="fill: none; stroke: #808080; stroke-opacity: 0.5; stroke-width: 1.5; stroke-linecap: square"/>
   </g>
   <g id="line2d_30">
    <path d="M 122.824226 98.059192 
L 197.508439 117.973535 
" clip-path="url(#pa9699321f1)" style="fill: none; stroke: #808080; stroke-opacity: 0.5; stroke-width: 1.5; stroke-linecap: square"/>
   </g>
   <g id="line2d_31">
    <path d="M 121.227446 117.973535 
L 199.166257 43.294747 
" clip-path="url(#pa9699321f1)" style="fill: none; stroke: #808080; stroke-opacity: 0.5; stroke-width: 1.5; stroke-linecap: square"/>
   </g>
   <g id="line2d_32">
    <path d="M 128.898419 117.973535 
L 201.683625 142.866465 
" clip-path="url(#pa9699321f1)" style="fill: none; stroke: #808080; stroke-opacity: 0.5; stroke-width: 1.5; stroke-linecap: square"/>
   </g>
   <g id="line2d_33">
    <path d="M 127.757441 167.759394 
L 191.418478 142.866465 
" clip-path="url(#pa9699321f1)" style="fill: none; stroke: #808080; stroke-opacity: 0.5; stroke-width: 1.5; stroke-linecap: square"/>
   </g>
   <g id="line2d_34">
    <path d="M 125.147793 93.080606 
L 198.449269 18.401818 
" clip-path="url(#pa9699321f1)" style="fill: none; stroke: #808080; stroke-opacity: 0.5; stroke-width: 1.5; stroke-linecap: square"/>
   </g>
   <g id="line2d_35">
    <path d="M 124.837448 43.294747 
L 202.039651 43.294747 
" clip-path="url(#pa9699321f1)" style="fill: none; stroke: #808080; stroke-opacity: 0.5; stroke-width: 1.5; stroke-linecap: square"/>
   </g>
   <g id="line2d_36">
    <path d="M 123.802399 117.973535 
L 191.910724 43.294747 
" clip-path="url(#pa9699321f1)" style="fill: none; stroke: #808080; stroke-opacity: 0.5; stroke-width: 1.5; stroke-linecap: square"/>
   </g>
   <g id="line2d_37">
    <path d="M 129.722028 167.759394 
L 202.229696 117.973535 
" clip-path="url(#pa9699321f1)" style="fill: none; stroke: #808080; stroke-opacity: 0.5; stroke-width: 1.5; stroke-linecap: square"/>
   </g>
   <g id="line2d_38">
    <path d="M 131.781633 192.652323 
L 199.988818 117.973535 
" clip-path="url(#pa9699321f1)" style="fill: none; stroke: #808080; stroke-opacity: 0.5; stroke-width: 1.5; stroke-linecap: square"/>
   </g>
   <g id="line2d_39">
    <path d="M 120.519785 93.080606 
L 197.298768 43.294747 
" clip-path="url(#pa9699321f1)" style="fill: none; stroke: #808080; stroke-opacity: 0.5; stroke-width: 1.5; stroke-linecap: square"/>
   </g>
   <g id="line2d_40">
    <path d="M 123.713764 242.438182 
L 200.552138 167.759394 
" clip-path="url(#pa9699321f1)" style="fill: none; stroke: #808080; stroke-opacity: 0.5; stroke-width: 1.5; stroke-linecap: square"/>
   </g>
   <g id="line2d_41">
    <path d="M 127.241919 192.652323 
L 201.766337 192.652323 
" clip-path="url(#pa9699321f1)" style="fill: none; stroke: #808080; stroke-opacity: 0.5; stroke-width: 1.5; stroke-linecap: square"/>
   </g>
   <g id="line2d_42">
    <path d="M 124.434348 18.401818 
L 205.033797 43.294747 
" clip-path="url(#pa9699321f1)" style="fill: none; stroke: #808080; stroke-opacity: 0.5; stroke-width: 1.5; stroke-linecap: square"/>
   </g>
   <g id="line2d_43">
    <path d="M 125.103853 142.866465 
L 197.722942 117.973535 
" clip-path="url(#pa9699321f1)" style="fill: none; stroke: #808080; stroke-opacity: 0.5; stroke-width: 1.5; stroke-linecap: square"/>
   </g>
   <g id="line2d_44">
    <path d="M 130.4692 192.652323 
L 197.465136 189.09619 
" clip-path="url(#pa9699321f1)" style="fill: none; stroke: #808080; stroke-opacity: 0.5; stroke-width: 1.5; stroke-linecap: square"/>
   </g>
   <g id="line2d_45">
    <path d="M 130.333239 242.438182 
L 200.57202 217.545253 
" clip-path="url(#pa9699321f1)" style="fill: none; stroke: #808080; stroke-opacity: 0.5; stroke-width: 1.5; stroke-linecap: square"/>
   </g>
   <g id="line2d_46">
    <path d="M 123.593411 43.294747 
L 199.720719 93.080606 
" clip-path="url(#pa9699321f1)" style="fill: none; stroke: #808080; stroke-opacity: 0.5; stroke-width: 1.5; stroke-linecap: square"/>
   </g>
   <g id="line2d_47">
    <path d="M 127.841604 18.401818 
L 195.574903 43.294747 
" clip-path="url(#pa9699321f1)" style="fill: none; stroke: #808080; stroke-opacity: 0.5; stroke-width: 1.5; stroke-linecap: square"/>
   </g>
   <g id="line2d_48">
    <path d="M 126.719027 142.866465 
L 194.472555 142.866465 
" clip-path="url(#pa9699321f1)" style="fill: none; stroke: #808080; stroke-opacity: 0.5; stroke-width: 1.5; stroke-linecap: square"/>
   </g>
   <g id="line2d_49">
    <path d="M 126.727685 43.294747 
L 201.693784 18.401818 
" clip-path="url(#pa9699321f1)" style="fill: none; stroke: #808080; stroke-opacity: 0.5; stroke-width: 1.5; stroke-linecap: square"/>
   </g>
   <g id="line2d_50">
    <path d="M 128.274521 93.080606 
L 200.980072 167.759394 
" clip-path="url(#pa9699321f1)" style="fill: none; stroke: #808080; stroke-opacity: 0.5; stroke-width: 1.5; stroke-linecap: square"/>
   </g>
   <g id="line2d_51">
    <path d="M 118.840833 43.294747 
L 197.087617 68.187677 
" clip-path="url(#pa9699321f1)" style="fill: none; stroke: #808080; stroke-opacity: 0.5; stroke-width: 1.5; stroke-linecap: square"/>
   </g>
   <g id="line2d_52">
    <path d="M 121.335284 142.866465 
L 200.380456 43.294747 
" clip-path="url(#pa9699321f1)" style="fill: none; stroke: #808080; stroke-opacity: 0.5; stroke-width: 1.5; stroke-linecap: square"/>
   </g>
   <g id="line2d_53">
    <path d="M 129.726654 43.294747 
L 198.872862 68.187677 
" clip-path="url(#pa9699321f1)" style="fill: none; stroke: #808080; stroke-opacity: 0.5; stroke-width: 1.5; stroke-linecap: square"/>
   </g>
   <g id="line2d_54">
    <path d="M 124.946436 142.866465 
L 200.7703 142.866465 
" clip-path="url(#pa9699321f1)" style="fill: none; stroke: #808080; stroke-opacity: 0.5; stroke-width: 1.5; stroke-linecap: square"/>
   </g>
   <g id="line2d_55">
    <path d="M 126.499138 117.973535 
L 199.111206 142.866465 
" clip-path="url(#pa9699321f1)" style="fill: none; stroke: #808080; stroke-opacity: 0.5; stroke-width: 1.5; stroke-linecap: square"/>
   </g>
   <g id="line2d_56">
    <path d="M 125.936264 93.080606 
L 203.501506 93.080606 
" clip-path="url(#pa9699321f1)" style="fill: none; stroke: #808080; stroke-opacity: 0.5; stroke-width: 1.5; stroke-linecap: square"/>
   </g>
   <g id="line2d_57">
    <path d="M 123.98794 217.545253 
L 203.578057 167.759394 
" clip-path="url(#pa9699321f1)" style="fill: none; stroke: #808080; stroke-opacity: 0.5; stroke-width: 1.5; stroke-linecap: square"/>
   </g>
   <g id="line2d_58">
    <path d="M 121.704607 117.973535 
L 200.578255 192.652323 
" clip-path="url(#pa9699321f1)" style="fill: none; stroke: #808080; stroke-opacity: 0.5; stroke-width: 1.5; stroke-linecap: square"/>
   </g>
   <g id="line2d_59">
    <path d="M 122.824226 98.059192 
L 197.508439 117.973535 
" clip-path="url(#pa9699321f1)" style="fill: none; stroke: #808080; stroke-opacity: 0.5; stroke-width: 1.5; stroke-linecap: square"/>
   </g>
   <g id="line2d_60">
    <path d="M 121.227446 117.973535 
L 199.166257 43.294747 
" clip-path="url(#pa9699321f1)" style="fill: none; stroke: #808080; stroke-opacity: 0.5; stroke-width: 1.5; stroke-linecap: square"/>
   </g>
   <g id="line2d_61">
    <path d="M 128.898419 117.973535 
L 201.683625 142.866465 
" clip-path="url(#pa9699321f1)" style="fill: none; stroke: #808080; stroke-opacity: 0.5; stroke-width: 1.5; stroke-linecap: square"/>
   </g>
   <g id="line2d_62">
    <path d="M 127.757441 167.759394 
L 191.418478 142.866465 
" clip-path="url(#pa9699321f1)" style="fill: none; stroke: #808080; stroke-opacity: 0.5; stroke-width: 1.5; stroke-linecap: square"/>
   </g>
   <g id="line2d_63">
    <path d="M 125.147793 93.080606 
L 198.449269 18.401818 
" clip-path="url(#pa9699321f1)" style="fill: none; stroke: #808080; stroke-opacity: 0.5; stroke-width: 1.5; stroke-linecap: square"/>
   </g>
   <g id="line2d_64">
    <path d="M 124.837448 43.294747 
L 202.039651 43.294747 
" clip-path="url(#pa9699321f1)" style="fill: none; stroke: #808080; stroke-opacity: 0.5; stroke-width: 1.5; stroke-linecap: square"/>
   </g>
   <g id="line2d_65">
    <path d="M 123.802399 117.973535 
L 191.910724 43.294747 
" clip-path="url(#pa9699321f1)" style="fill: none; stroke: #808080; stroke-opacity: 0.5; stroke-width: 1.5; stroke-linecap: square"/>
   </g>
   <g id="line2d_66">
    <path d="M 129.722028 167.759394 
L 202.229696 117.973535 
" clip-path="url(#pa9699321f1)" style="fill: none; stroke: #808080; stroke-opacity: 0.5; stroke-width: 1.5; stroke-linecap: square"/>
   </g>
   <g id="line2d_67">
    <path d="M 131.781633 192.652323 
L 199.988818 117.973535 
" clip-path="url(#pa9699321f1)" style="fill: none; stroke: #808080; stroke-opacity: 0.5; stroke-width: 1.5; stroke-linecap: square"/>
   </g>
   <g id="line2d_68">
    <path d="M 120.519785 93.080606 
L 197.298768 43.294747 
" clip-path="url(#pa9699321f1)" style="fill: none; stroke: #808080; stroke-opacity: 0.5; stroke-width: 1.5; stroke-linecap: square"/>
   </g>
   <g id="line2d_69">
    <path d="M 123.713764 242.438182 
L 200.552138 167.759394 
" clip-path="url(#pa9699321f1)" style="fill: none; stroke: #808080; stroke-opacity: 0.5; stroke-width: 1.5; stroke-linecap: square"/>
   </g>
   <g id="line2d_70">
    <path d="M 127.241919 192.652323 
L 201.766337 192.652323 
" clip-path="url(#pa9699321f1)" style="fill: none; stroke: #808080; stroke-opacity: 0.5; stroke-width: 1.5; stroke-linecap: square"/>
   </g>
   <g id="line2d_71">
    <path d="M 95.16975 117.973535 
L 154.564417 117.973535 
" clip-path="url(#pa9699321f1)" style="fill: none; stroke: #303030"/>
   </g>
   <g id="line2d_72">
    <path d="M 169.413083 117.973535 
L 228.80775 117.973535 
" clip-path="url(#pa9699321f1)" style="fill: none; stroke: #303030"/>
   </g>
   <g id="patch_5">
    <path d="M 50.62375 253.64 
L 50.62375 7.2 
" style="fill: none; stroke: #000000; stroke-width: 0.8; stroke-linejoin: miter; stroke-linecap: square"/>
   </g>
   <g id="patch_6">
    <path d="M 273.35375 253.64 
L 273.35375 7.2 
" style="fill: none; stroke: #000000; stroke-width: 0.8; stroke-linejoin: miter; stroke-linecap: square"/>
   </g>
   <g id="patch_7">
    <path d="M 50.62375 253.64 
L 273.35375 253.64 
" style="fill: none; stroke: #000000; stroke-width: 0.8; stroke-linejoin: miter; stroke-linecap: square"/>
   </g>
   <g id="patch_8">
    <path d="M 50.62375 7.2 
L 273.35375 7.2 
" style="fill: none; stroke: #000000; stroke-width: 0.8; stroke-linejoin: miter; stroke-linecap: square"/>
   </g>
   <g id="PathCollection_1">
    <defs>
     <path id="mdaa49c10cc" d="M 0 6 
C 1.591219 6 3.117479 5.367802 4.242641 4.242641 
C 5.367802 3.117479 6 1.591219 6 0 
C 6 -1.591219 5.367802 -3.117479 4.242641 -4.242641 
C 3.117479 -5.367802 1.591219 -6 0 -6 
C -1.591219 -6 -3.117479 -5.367802 -4.242641 -4.242641 
C -5.367802 -3.117479 -6 -1.591219 -6 0 
C -6 1.591219 -5.367802 3.117479 -4.242641 4.242641 
C -3.117479 5.367802 -1.591219 6 0 6 
z
" style="stroke: #000000; stroke-opacity: 0.5"/>
    </defs>
    <g clip-path="url(#pa9699321f1)">
     <use xlink:href="#mdaa49c10cc" x="118.840833" y="43.294747" style="fill: #1a80bb; fill-opacity: 0.5; stroke: #000000; stroke-opacity: 0.5"/>
    </g>
   </g>
   <g id="PathCollection_2">
    <g clip-path="url(#pa9699321f1)">
     <use xlink:href="#mdaa49c10cc" x="120.519785" y="93.080606" style="fill: #1a80bb; fill-opacity: 0.5; stroke: #000000; stroke-opacity: 0.5"/>
    </g>
   </g>
   <g id="PathCollection_3">
    <g clip-path="url(#pa9699321f1)">
     <use xlink:href="#mdaa49c10cc" x="121.227446" y="117.973535" style="fill: #1a80bb; fill-opacity: 0.5; stroke: #000000; stroke-opacity: 0.5"/>
    </g>
   </g>
   <g id="PathCollection_4">
    <g clip-path="url(#pa9699321f1)">
     <use xlink:href="#mdaa49c10cc" x="121.335284" y="142.866465" style="fill: #1a80bb; fill-opacity: 0.5; stroke: #000000; stroke-opacity: 0.5"/>
    </g>
   </g>
   <g id="PathCollection_5">
    <g clip-path="url(#pa9699321f1)">
     <use xlink:href="#mdaa49c10cc" x="121.704607" y="117.973535" style="fill: #1a80bb; fill-opacity: 0.5; stroke: #000000; stroke-opacity: 0.5"/>
    </g>
   </g>
   <g id="PathCollection_6">
    <g clip-path="url(#pa9699321f1)">
     <use xlink:href="#mdaa49c10cc" x="122.824226" y="98.059192" style="fill: #1a80bb; fill-opacity: 0.5; stroke: #000000; stroke-opacity: 0.5"/>
    </g>
   </g>
   <g id="PathCollection_7">
    <g clip-path="url(#pa9699321f1)">
     <use xlink:href="#mdaa49c10cc" x="123.593411" y="43.294747" style="fill: #1a80bb; fill-opacity: 0.5; stroke: #000000; stroke-opacity: 0.5"/>
    </g>
   </g>
   <g id="PathCollection_8">
    <g clip-path="url(#pa9699321f1)">
     <use xlink:href="#mdaa49c10cc" x="123.713764" y="242.438182" style="fill: #1a80bb; fill-opacity: 0.5; stroke: #000000; stroke-opacity: 0.5"/>
    </g>
   </g>
   <g id="PathCollection_9">
    <g clip-path="url(#pa9699321f1)">
     <use xlink:href="#mdaa49c10cc" x="123.802399" y="117.973535" style="fill: #1a80bb; fill-opacity: 0.5; stroke: #000000; stroke-opacity: 0.5"/>
    </g>
   </g>
   <g id="PathCollection_10">
    <g clip-path="url(#pa9699321f1)">
     <use xlink:href="#mdaa49c10cc" x="123.98794" y="217.545253" style="fill: #1a80bb; fill-opacity: 0.5; stroke: #000000; stroke-opacity: 0.5"/>
    </g>
   </g>
   <g id="PathCollection_11">
    <g clip-path="url(#pa9699321f1)">
     <use xlink:href="#mdaa49c10cc" x="124.434348" y="18.401818" style="fill: #1a80bb; fill-opacity: 0.5; stroke: #000000; stroke-opacity: 0.5"/>
    </g>
   </g>
   <g id="PathCollection_12">
    <g clip-path="url(#pa9699321f1)">
     <use xlink:href="#mdaa49c10cc" x="124.837448" y="43.294747" style="fill: #1a80bb; fill-opacity: 0.5; stroke: #000000; stroke-opacity: 0.5"/>
    </g>
   </g>
   <g id="PathCollection_13">
    <g clip-path="url(#pa9699321f1)">
     <use xlink:href="#mdaa49c10cc" x="124.946436" y="142.866465" style="fill: #1a80bb; fill-opacity: 0.5; stroke: #000000; stroke-opacity: 0.5"/>
    </g>
   </g>
   <g id="PathCollection_14">
    <g clip-path="url(#pa9699321f1)">
     <use xlink:href="#mdaa49c10cc" x="125.103853" y="142.866465" style="fill: #1a80bb; fill-opacity: 0.5; stroke: #000000; stroke-opacity: 0.5"/>
    </g>
   </g>
   <g id="PathCollection_15">
    <g clip-path="url(#pa9699321f1)">
     <use xlink:href="#mdaa49c10cc" x="125.147793" y="93.080606" style="fill: #1a80bb; fill-opacity: 0.5; stroke: #000000; stroke-opacity: 0.5"/>
    </g>
   </g>
   <g id="PathCollection_16">
    <g clip-path="url(#pa9699321f1)">
     <use xlink:href="#mdaa49c10cc" x="125.936264" y="93.080606" style="fill: #1a80bb; fill-opacity: 0.5; stroke: #000000; stroke-opacity: 0.5"/>
    </g>
   </g>
   <g id="PathCollection_17">
    <g clip-path="url(#pa9699321f1)">
     <use xlink:href="#mdaa49c10cc" x="126.499138" y="117.973535" style="fill: #1a80bb; fill-opacity: 0.5; stroke: #000000; stroke-opacity: 0.5"/>
    </g>
   </g>
   <g id="PathCollection_18">
    <g clip-path="url(#pa9699321f1)">
     <use xlink:href="#mdaa49c10cc" x="126.719027" y="142.866465" style="fill: #1a80bb; fill-opacity: 0.5; stroke: #000000; stroke-opacity: 0.5"/>
    </g>
   </g>
   <g id="PathCollection_19">
    <g clip-path="url(#pa9699321f1)">
     <use xlink:href="#mdaa49c10cc" x="126.727685" y="43.294747" style="fill: #1a80bb; fill-opacity: 0.5; stroke: #000000; stroke-opacity: 0.5"/>
    </g>
   </g>
   <g id="PathCollection_20">
    <g clip-path="url(#pa9699321f1)">
     <use xlink:href="#mdaa49c10cc" x="127.241919" y="192.652323" style="fill: #1a80bb; fill-opacity: 0.5; stroke: #000000; stroke-opacity: 0.5"/>
    </g>
   </g>
   <g id="PathCollection_21">
    <g clip-path="url(#pa9699321f1)">
     <use xlink:href="#mdaa49c10cc" x="127.757441" y="167.759394" style="fill: #1a80bb; fill-opacity: 0.5; stroke: #000000; stroke-opacity: 0.5"/>
    </g>
   </g>
   <g id="PathCollection_22">
    <g clip-path="url(#pa9699321f1)">
     <use xlink:href="#mdaa49c10cc" x="127.841604" y="18.401818" style="fill: #1a80bb; fill-opacity: 0.5; stroke: #000000; stroke-opacity: 0.5"/>
    </g>
   </g>
   <g id="PathCollection_23">
    <g clip-path="url(#pa9699321f1)">
     <use xlink:href="#mdaa49c10cc" x="128.274521" y="93.080606" style="fill: #1a80bb; fill-opacity: 0.5; stroke: #000000; stroke-opacity: 0.5"/>
    </g>
   </g>
   <g id="PathCollection_24">
    <g clip-path="url(#pa9699321f1)">
     <use xlink:href="#mdaa49c10cc" x="128.898419" y="117.973535" style="fill: #1a80bb; fill-opacity: 0.5; stroke: #000000; stroke-opacity: 0.5"/>
    </g>
   </g>
   <g id="PathCollection_25">
    <g clip-path="url(#pa9699321f1)">
     <use xlink:href="#mdaa49c10cc" x="129.722028" y="167.759394" style="fill: #1a80bb; fill-opacity: 0.5; stroke: #000000; stroke-opacity: 0.5"/>
    </g>
   </g>
   <g id="PathCollection_26">
    <g clip-path="url(#pa9699321f1)">
     <use xlink:href="#mdaa49c10cc" x="129.726654" y="43.294747" style="fill: #1a80bb; fill-opacity: 0.5; stroke: #000000; stroke-opacity: 0.5"/>
    </g>
   </g>
   <g id="PathCollection_27">
    <g clip-path="url(#pa9699321f1)">
     <use xlink:href="#mdaa49c10cc" x="130.333239" y="242.438182" style="fill: #1a80bb; fill-opacity: 0.5; stroke: #000000; stroke-opacity: 0.5"/>
    </g>
   </g>
   <g id="PathCollection_28">
    <g clip-path="url(#pa9699321f1)">
     <use xlink:href="#mdaa49c10cc" x="130.4692" y="192.652323" style="fill: #1a80bb; fill-opacity: 0.5; stroke: #000000; stroke-opacity: 0.5"/>
    </g>
   </g>
   <g id="PathCollection_29">
    <g clip-path="url(#pa9699321f1)">
     <use xlink:href="#mdaa49c10cc" x="131.781633" y="192.652323" style="fill: #1a80bb; fill-opacity: 0.5; stroke: #000000; stroke-opacity: 0.5"/>
    </g>
   </g>
   <g id="PathCollection_30">
    <defs>
     <path id="mf55ef42dbb" d="M 0 6 
C 1.591219 6 3.117479 5.367802 4.242641 4.242641 
C 5.367802 3.117479 6 1.591219 6 0 
C 6 -1.591219 5.367802 -3.117479 4.242641 -4.242641 
C 3.117479 -5.367802 1.591219 -6 0 -6 
C -1.591219 -6 -3.117479 -5.367802 -4.242641 -4.242641 
C -5.367802 -3.117479 -6 -1.591219 -6 0 
C -6 1.591219 -5.367802 3.117479 -4.242641 4.242641 
C -3.117479 5.367802 -1.591219 6 0 6 
z
" style="stroke: #000000; stroke-opacity: 0.5"/>
    </defs>
    <g clip-path="url(#pa9699321f1)">
     <use xlink:href="#mf55ef42dbb" x="191.418478" y="142.866465" style="fill: #a00000; fill-opacity: 0.5; stroke: #000000; stroke-opacity: 0.5"/>
    </g>
   </g>
   <g id="PathCollection_31">
    <g clip-path="url(#pa9699321f1)">
     <use xlink:href="#mf55ef42dbb" x="191.910724" y="43.294747" style="fill: #a00000; fill-opacity: 0.5; stroke: #000000; stroke-opacity: 0.5"/>
    </g>
   </g>
   <g id="PathCollection_32">
    <g clip-path="url(#pa9699321f1)">
     <use xlink:href="#mf55ef42dbb" x="194.472555" y="142.866465" style="fill: #a00000; fill-opacity: 0.5; stroke: #000000; stroke-opacity: 0.5"/>
    </g>
   </g>
   <g id="PathCollection_33">
    <g clip-path="url(#pa9699321f1)">
     <use xlink:href="#mf55ef42dbb" x="195.574903" y="43.294747" style="fill: #a00000; fill-opacity: 0.5; stroke: #000000; stroke-opacity: 0.5"/>
    </g>
   </g>
   <g id="PathCollection_34">
    <g clip-path="url(#pa9699321f1)">
     <use xlink:href="#mf55ef42dbb" x="197.087617" y="68.187677" style="fill: #a00000; fill-opacity: 0.5; stroke: #000000; stroke-opacity: 0.5"/>
    </g>
   </g>
   <g id="PathCollection_35">
    <g clip-path="url(#pa9699321f1)">
     <use xlink:href="#mf55ef42dbb" x="197.298768" y="43.294747" style="fill: #a00000; fill-opacity: 0.5; stroke: #000000; stroke-opacity: 0.5"/>
    </g>
   </g>
   <g id="PathCollection_36">
    <g clip-path="url(#pa9699321f1)">
     <use xlink:href="#mf55ef42dbb" x="197.465136" y="189.09619" style="fill: #a00000; fill-opacity: 0.5; stroke: #000000; stroke-opacity: 0.5"/>
    </g>
   </g>
   <g id="PathCollection_37">
    <g clip-path="url(#pa9699321f1)">
     <use xlink:href="#mf55ef42dbb" x="197.508439" y="117.973535" style="fill: #a00000; fill-opacity: 0.5; stroke: #000000; stroke-opacity: 0.5"/>
    </g>
   </g>
   <g id="PathCollection_38">
    <g clip-path="url(#pa9699321f1)">
     <use xlink:href="#mf55ef42dbb" x="197.722942" y="117.973535" style="fill: #a00000; fill-opacity: 0.5; stroke: #000000; stroke-opacity: 0.5"/>
    </g>
   </g>
   <g id="PathCollection_39">
    <g clip-path="url(#pa9699321f1)">
     <use xlink:href="#mf55ef42dbb" x="198.449269" y="18.401818" style="fill: #a00000; fill-opacity: 0.5; stroke: #000000; stroke-opacity: 0.5"/>
    </g>
   </g>
   <g id="PathCollection_40">
    <g clip-path="url(#pa9699321f1)">
     <use xlink:href="#mf55ef42dbb" x="198.872862" y="68.187677" style="fill: #a00000; fill-opacity: 0.5; stroke: #000000; stroke-opacity: 0.5"/>
    </g>
   </g>
   <g id="PathCollection_41">
    <g clip-path="url(#pa9699321f1)">
     <use xlink:href="#mf55ef42dbb" x="199.111206" y="142.866465" style="fill: #a00000; fill-opacity: 0.5; stroke: #000000; stroke-opacity: 0.5"/>
    </g>
   </g>
   <g id="PathCollection_42">
    <g clip-path="url(#pa9699321f1)">
     <use xlink:href="#mf55ef42dbb" x="199.166257" y="43.294747" style="fill: #a00000; fill-opacity: 0.5; stroke: #000000; stroke-opacity: 0.5"/>
    </g>
   </g>
   <g id="PathCollection_43">
    <g clip-path="url(#pa9699321f1)">
     <use xlink:href="#mf55ef42dbb" x="199.720719" y="93.080606" style="fill: #a00000; fill-opacity: 0.5; stroke: #000000; stroke-opacity: 0.5"/>
    </g>
   </g>
   <g id="PathCollection_44">
    <g clip-path="url(#pa9699321f1)">
     <use xlink:href="#mf55ef42dbb" x="199.988818" y="117.973535" style="fill: #a00000; fill-opacity: 0.5; stroke: #000000; stroke-opacity: 0.5"/>
    </g>
   </g>
   <g id="PathCollection_45">
    <g clip-path="url(#pa9699321f1)">
     <use xlink:href="#mf55ef42dbb" x="200.380456" y="43.294747" style="fill: #a00000; fill-opacity: 0.5; stroke: #000000; stroke-opacity: 0.5"/>
    </g>
   </g>
   <g id="PathCollection_46">
    <g clip-path="url(#pa9699321f1)">
     <use xlink:href="#mf55ef42dbb" x="200.552138" y="167.759394" style="fill: #a00000; fill-opacity: 0.5; stroke: #000000; stroke-opacity: 0.5"/>
    </g>
   </g>
   <g id="PathCollection_47">
    <g clip-path="url(#pa9699321f1)">
     <use xlink:href="#mf55ef42dbb" x="200.57202" y="217.545253" style="fill: #a00000; fill-opacity: 0.5; stroke: #000000; stroke-opacity: 0.5"/>
    </g>
   </g>
   <g id="PathCollection_48">
    <g clip-path="url(#pa9699321f1)">
     <use xlink:href="#mf55ef42dbb" x="200.578255" y="192.652323" style="fill: #a00000; fill-opacity: 0.5; stroke: #000000; stroke-opacity: 0.5"/>
    </g>
   </g>
   <g id="PathCollection_49">
    <g clip-path="url(#pa9699321f1)">
     <use xlink:href="#mf55ef42dbb" x="200.7703" y="142.866465" style="fill: #a00000; fill-opacity: 0.5; stroke: #000000; stroke-opacity: 0.5"/>
    </g>
   </g>
   <g id="PathCollection_50">
    <g clip-path="url(#pa9699321f1)">
     <use xlink:href="#mf55ef42dbb" x="200.980072" y="167.759394" style="fill: #a00000; fill-opacity: 0.5; stroke: #000000; stroke-opacity: 0.5"/>
    </g>
   </g>
   <g id="PathCollection_51">
    <g clip-path="url(#pa9699321f1)">
     <use xlink:href="#mf55ef42dbb" x="201.683625" y="142.866465" style="fill: #a00000; fill-opacity: 0.5; stroke: #000000; stroke-opacity: 0.5"/>
    </g>
   </g>
   <g id="PathCollection_52">
    <g clip-path="url(#pa9699321f1)">
     <use xlink:href="#mf55ef42dbb" x="201.693784" y="18.401818" style="fill: #a00000; fill-opacity: 0.5; stroke: #000000; stroke-opacity: 0.5"/>
    </g>
   </g>
   <g id="PathCollection_53">
    <g clip-path="url(#pa9699321f1)">
     <use xlink:href="#mf55ef42dbb" x="201.766337" y="192.652323" style="fill: #a00000; fill-opacity: 0.5; stroke: #000000; stroke-opacity: 0.5"/>
    </g>
   </g>
   <g id="PathCollection_54">
    <g clip-path="url(#pa9699321f1)">
     <use xlink:href="#mf55ef42dbb" x="202.039651" y="43.294747" style="fill: #a00000; fill-opacity: 0.5; stroke: #000000; stroke-opacity: 0.5"/>
    </g>
   </g>
   <g id="PathCollection_55">
    <g clip-path="url(#pa9699321f1)">
     <use xlink:href="#mf55ef42dbb" x="202.229696" y="117.973535" style="fill: #a00000; fill-opacity: 0.5; stroke: #000000; stroke-opacity: 0.5"/>
    </g>
   </g>
   <g id="PathCollection_56">
    <g clip-path="url(#pa9699321f1)">
     <use xlink:href="#mf55ef42dbb" x="203.501506" y="93.080606" style="fill: #a00000; fill-opacity: 0.5; stroke: #000000; stroke-opacity: 0.5"/>
    </g>
   </g>
   <g id="PathCollection_57">
    <g clip-path="url(#pa9699321f1)">
     <use xlink:href="#mf55ef42dbb" x="203.578057" y="167.759394" style="fill: #a00000; fill-opacity: 0.5; stroke: #000000; stroke-opacity: 0.5"/>
    </g>
   </g>
   <g id="PathCollection_58">
    <g clip-path="url(#pa9699321f1)">
     <use xlink:href="#mf55ef42dbb" x="205.033797" y="43.294747" style="fill: #a00000; fill-opacity: 0.5; stroke: #000000; stroke-opacity: 0.5"/>
    </g>
   </g>
   <g id="line2d_73"/>
   <g id="line2d_74"/>
   <g id="line2d_75">
    <defs>
     <path id="m6483b0a506" d="M 0 -7.5 
L -7.5 7.5 
L 7.5 7.5 
z
" style="stroke: #000000; stroke-linejoin: miter"/>
    </defs>
    <g clip-path="url(#pa9699321f1)">
     <use xlink:href="#m6483b0a506" x="124.867083" y="120.720341" style="fill: #ffffff; stroke: #000000; stroke-linejoin: miter"/>
    </g>
   </g>
   <g id="line2d_76">
    <g clip-path="url(#pa9699321f1)">
     <use xlink:href="#m6483b0a506" x="199.110417" y="108.408764" style="fill: #ffffff; stroke: #000000; stroke-linejoin: miter"/>
    </g>
   </g>
  </g>
 </g>
 <defs>
  <clipPath id="pa9699321f1">
   <rect x="50.62375" y="7.2" width="222.73" height="246.44"/>
  </clipPath>
 </defs>
</svg>
