<?xml version="1.0" encoding="utf-8" standalone="no"?>
<!DOCTYPE svg PUBLIC "-//W3C//DTD SVG 1.1//EN"
  "http://www.w3.org/Graphics/SVG/1.1/DTD/svg11.dtd">
<svg xmlns:xlink="http://www.w3.org/1999/xlink" width="240.539077pt" height="295.539688pt" viewBox="0 0 240.539077 295.539688" xmlns="http://www.w3.org/2000/svg" version="1.1">
 <metadata>
  <rdf:RDF xmlns:dc="http://purl.org/dc/elements/1.1/" xmlns:cc="http://creativecommons.org/ns#" xmlns:rdf="http://www.w3.org/1999/02/22-rdf-syntax-ns#">
   <cc:Work>
    <dc:type rdf:resource="http://purl.org/dc/dcmitype/StillImage"/>
    <dc:date>2026-04-14T15:59:11.650915</dc:date>
    <dc:format>image/svg+xml</dc:format>
    <dc:creator>
     <cc:Agent>
      <dc:title>Matplotlib v3.10.3, https://matplotlib.org/</dc:title>
     </cc:Agent>
    </dc:creator>
   </cc:Work>
  </rdf:RDF>
 </metadata>
 <defs>
  <style type="text/css">*{stroke-linejoin: round; stroke-linecap: butt}</style>
 </defs>
 <g id="figure_1">
  <g id="patch_1">
   <path d="M 0 295.539688 
L 240.539077 295.539688 
L 240.539077 0 
L 0 0 
L 0 295.539688 
z
" style="fill: none"/>
  </g>
  <g id="axes_1">
   <g id="patch_2">
    <path d="M 10.139077 248.074688 
L 233.339077 248.074688 
L 233.339077 26.314687 
L 10.139077 26.314687 
L 10.139077 248.074688 
z
" style="fill: none"/>
   </g>
   <g id="PathCollection_1">
    <defs>
     <path id="medef149c23" d="M 0 4.743416 
C 1.257969 4.743416 2.464584 4.24362 3.354102 3.354102 
C 4.24362 2.464584 4.743416 1.257969 4.743416 0 
C 4.743416 -1.257969 4.24362 -2.464584 3.354102 -3.354102 
C 2.464584 -4.24362 1.257969 -4.743416 0 -4.743416 
C -1.257969 -4.743416 -2.464584 -4.24362 -3.354102 -3.354102 
C -4.24362 -2.464584 -4.743416 -1.257969 -4.743416 0 
C -4.743416 1.257969 -4.24362 2.464584 -3.354102 3.354102 
C -2.464584 4.24362 -1.257969 4.743416 0 4.743416 
z
" style="stroke: #1f77b4"/>
    </defs>
    <g clip-path="url(#pa862def59b)">
     <use xlink:href="#medef149c23" x="163.036229" y="137.194688" style="fill: #1f77b4; stroke: #1f77b4"/>
    </g>
   </g>
   <g id="matplotlib.axis_1">
    <g id="xtick_1">
     <g id="line2d_1">
      <defs>
       <path id="m2ab0c036e0" d="M 0 0 
L 0 3.5 
" style="stroke: #000000; stroke-width: 0.8"/>
      </defs>
      <g>
       <use xlink:href="#m2ab0c036e0" x="20.284531" y="248.074688" style="stroke: #000000; stroke-width: 0.8"/>
      </g>
     </g>
     <g id="text_1">
      <!-- -0.45 -->
      <g transform="translate(7.2 265.095625) scale(0.14 -0.14)">
       <defs>
        <path id="ArialNarrow-2d" d="M 166 1375 
L 166 1941 
L 1581 1941 
L 1581 1375 
L 166 1375 
z
" transform="scale(0.015625)"/>
        <path id="ArialNarrow-30" d="M 209 2259 
Q 209 3413 520 4006 
Q 831 4600 1438 4600 
Q 1975 4600 2284 4119 
Q 2659 3538 2659 2259 
Q 2659 1113 2350 517 
Q 2041 -78 1431 -78 
Q 894 -78 551 447 
Q 209 972 209 2259 
z
M 681 2259 
Q 681 1144 895 764 
Q 1109 384 1444 384 
Q 1759 384 1971 768 
Q 2184 1153 2184 2259 
Q 2184 3378 1970 3756 
Q 1756 4134 1416 4134 
Q 1103 4134 892 3750 
Q 681 3366 681 2259 
z
" transform="scale(0.015625)"/>
        <path id="ArialNarrow-2e" d="M 484 0 
L 484 641 
L 1009 641 
L 1009 0 
L 484 0 
z
" transform="scale(0.015625)"/>
        <path id="ArialNarrow-34" d="M 1688 0 
L 1688 1097 
L 59 1097 
L 59 1613 
L 1775 4581 
L 2150 4581 
L 2150 1613 
L 2659 1613 
L 2659 1097 
L 2150 1097 
L 2150 0 
L 1688 0 
z
M 1688 1613 
L 1688 3678 
L 513 1613 
L 1688 1613 
z
" transform="scale(0.015625)"/>
        <path id="ArialNarrow-35" d="M 209 1200 
L 694 1250 
Q 750 813 948 598 
Q 1147 384 1409 384 
Q 1738 384 1975 686 
Q 2213 988 2213 1509 
Q 2213 2000 1983 2270 
Q 1753 2541 1406 2541 
Q 1197 2541 1014 2423 
Q 831 2306 725 2097 
L 291 2166 
L 656 4519 
L 2522 4519 
L 2522 3981 
L 1025 3981 
L 822 2750 
Q 1156 3038 1531 3038 
Q 2003 3038 2351 2636 
Q 2700 2234 2700 1553 
Q 2700 881 2351 401 
Q 2003 -78 1416 -78 
Q 928 -78 592 261 
Q 256 600 209 1200 
z
" transform="scale(0.015625)"/>
       </defs>
       <use xlink:href="#ArialNarrow-2d"/>
       <use xlink:href="#ArialNarrow-30" transform="translate(27.294922 0)"/>
       <use xlink:href="#ArialNarrow-2e" transform="translate(72.900391 0)"/>
       <use xlink:href="#ArialNarrow-34" transform="translate(95.703125 0)"/>
       <use xlink:href="#ArialNarrow-35" transform="translate(141.308594 0)"/>
      </g>
     </g>
    </g>
    <g id="xtick_2">
     <g id="line2d_2">
      <g>
       <use xlink:href="#m2ab0c036e0" x="104.383823" y="248.074688" style="stroke: #000000; stroke-width: 0.8"/>
      </g>
     </g>
     <g id="text_2">
      <!-- 0 -->
      <g transform="translate(101.191167 265.095625) scale(0.14 -0.14)">
       <use xlink:href="#ArialNarrow-30"/>
      </g>
     </g>
    </g>
    <g id="xtick_3">
     <g id="line2d_3">
      <g>
       <use xlink:href="#m2ab0c036e0" x="188.483115" y="248.074688" style="stroke: #000000; stroke-width: 0.8"/>
      </g>
     </g>
     <g id="text_3">
      <!-- 0.45 -->
      <g transform="translate(177.309365 265.095625) scale(0.14 -0.14)">
       <use xlink:href="#ArialNarrow-30"/>
       <use xlink:href="#ArialNarrow-2e" transform="translate(45.605469 0)"/>
       <use xlink:href="#ArialNarrow-34" transform="translate(68.408203 0)"/>
       <use xlink:href="#ArialNarrow-35" transform="translate(114.013672 0)"/>
      </g>
     </g>
    </g>
    <g id="text_4">
     <!-- Cohen's dz -->
     <g transform="translate(85.038764 284.762187) scale(0.18 -0.18)">
      <defs>
       <path id="ArialNarrow-43" d="M 3072 1606 
L 3572 1453 
Q 3406 681 2992 301 
Q 2578 -78 1984 -78 
Q 1463 -78 1092 176 
Q 722 431 486 993 
Q 250 1556 250 2322 
Q 250 3078 486 3601 
Q 722 4125 1125 4392 
Q 1528 4659 2025 4659 
Q 2569 4659 2959 4320 
Q 3350 3981 3506 3325 
L 3019 3184 
Q 2769 4141 2016 4141 
Q 1641 4141 1366 3948 
Q 1091 3756 927 3350 
Q 763 2944 763 2322 
Q 763 1381 1094 911 
Q 1425 441 1975 441 
Q 2381 441 2676 730 
Q 2972 1019 3072 1606 
z
" transform="scale(0.015625)"/>
       <path id="ArialNarrow-6f" d="M 166 1659 
Q 166 2519 527 2956 
Q 888 3394 1441 3394 
Q 1984 3394 2350 2956 
Q 2716 2519 2716 1694 
Q 2716 800 2356 362 
Q 1997 -75 1441 -75 
Q 894 -75 530 364 
Q 166 803 166 1659 
z
M 638 1659 
Q 638 1016 872 702 
Q 1106 388 1453 388 
Q 1778 388 2011 705 
Q 2244 1022 2244 1659 
Q 2244 2300 2009 2614 
Q 1775 2928 1428 2928 
Q 1100 2928 869 2612 
Q 638 2297 638 1659 
z
" transform="scale(0.015625)"/>
       <path id="ArialNarrow-68" d="M 338 0 
L 338 4581 
L 797 4581 
L 797 2938 
Q 959 3166 1164 3280 
Q 1369 3394 1616 3394 
Q 2050 3394 2301 3117 
Q 2553 2841 2553 2103 
L 2553 0 
L 2094 0 
L 2094 2103 
Q 2094 2534 1941 2721 
Q 1788 2909 1519 2909 
Q 1219 2909 1008 2668 
Q 797 2428 797 1816 
L 797 0 
L 338 0 
z
" transform="scale(0.015625)"/>
       <path id="ArialNarrow-65" d="M 2200 1069 
L 2675 997 
Q 2556 466 2245 195 
Q 1934 -75 1475 -75 
Q 897 -75 539 364 
Q 181 803 181 1631 
Q 181 2491 542 2942 
Q 903 3394 1456 3394 
Q 1984 3394 2337 2950 
Q 2691 2506 2691 1666 
L 2688 1516 
L 656 1516 
Q 684 956 915 672 
Q 1147 388 1478 388 
Q 1997 388 2200 1069 
z
M 684 1978 
L 2203 1978 
Q 2172 2409 2019 2622 
Q 1797 2931 1453 2931 
Q 1144 2931 925 2673 
Q 706 2416 684 1978 
z
" transform="scale(0.015625)"/>
       <path id="ArialNarrow-6e" d="M 338 0 
L 338 3319 
L 753 3319 
L 753 2847 
Q 903 3122 1120 3258 
Q 1338 3394 1619 3394 
Q 1838 3394 2023 3308 
Q 2209 3222 2323 3083 
Q 2438 2944 2494 2722 
Q 2550 2500 2550 2041 
L 2550 0 
L 2088 0 
L 2088 2019 
Q 2088 2384 2025 2553 
Q 1963 2722 1830 2814 
Q 1697 2906 1522 2906 
Q 1191 2906 994 2659 
Q 797 2413 797 1813 
L 797 0 
L 338 0 
z
" transform="scale(0.015625)"/>
       <path id="ArialNarrow-27" d="M 341 2959 
L 222 3816 
L 222 4581 
L 747 4581 
L 747 3816 
L 625 2959 
L 341 2959 
z
" transform="scale(0.015625)"/>
       <path id="ArialNarrow-73" d="M 163 991 
L 619 1078 
Q 659 728 840 558 
Q 1022 388 1322 388 
Q 1622 388 1786 536 
Q 1950 684 1950 913 
Q 1950 1109 1809 1219 
Q 1713 1294 1341 1406 
Q 803 1572 622 1687 
Q 441 1803 341 1997 
Q 241 2191 241 2438 
Q 241 2863 512 3128 
Q 784 3394 1266 3394 
Q 1569 3394 1798 3284 
Q 2028 3175 2150 2990 
Q 2272 2806 2319 2463 
L 1869 2388 
Q 1806 2931 1278 2931 
Q 978 2931 831 2811 
Q 684 2691 684 2503 
Q 684 2319 825 2213 
Q 909 2150 1325 2013 
Q 1897 1828 2065 1720 
Q 2234 1613 2328 1427 
Q 2422 1241 2422 984 
Q 2422 509 2120 215 
Q 1819 -78 1297 -78 
Q 319 -78 163 991 
z
" transform="scale(0.015625)"/>
       <path id="ArialNarrow-20" transform="scale(0.015625)"/>
       <path id="ArialNarrow-64" d="M 2103 0 
L 2103 419 
Q 1978 178 1781 51 
Q 1584 -75 1356 -75 
Q 875 -75 523 379 
Q 172 834 172 1659 
Q 172 2225 328 2619 
Q 484 3013 745 3203 
Q 1006 3394 1325 3394 
Q 1553 3394 1748 3273 
Q 1944 3153 2072 2938 
L 2072 4581 
L 2534 4581 
L 2534 0 
L 2103 0 
z
M 644 1656 
Q 644 1013 867 700 
Q 1091 388 1388 388 
Q 1681 388 1897 688 
Q 2113 988 2113 1594 
Q 2113 2291 1897 2611 
Q 1681 2931 1353 2931 
Q 1063 2931 853 2623 
Q 644 2316 644 1656 
z
" transform="scale(0.015625)"/>
       <path id="ArialNarrow-7a" d="M 103 0 
L 103 456 
L 1838 2881 
Q 1541 2863 1316 2863 
L 206 2863 
L 206 3319 
L 2431 3319 
L 2431 2947 
L 956 841 
L 672 456 
Q 981 484 1253 484 
L 2513 484 
L 2513 0 
L 103 0 
z
" transform="scale(0.015625)"/>
      </defs>
      <use xlink:href="#ArialNarrow-43"/>
      <use xlink:href="#ArialNarrow-6f" transform="translate(59.179688 0)"/>
      <use xlink:href="#ArialNarrow-68" transform="translate(104.785156 0)"/>
      <use xlink:href="#ArialNarrow-65" transform="translate(150.390625 0)"/>
      <use xlink:href="#ArialNarrow-6e" transform="translate(195.996094 0)"/>
      <use xlink:href="#ArialNarrow-27" transform="translate(241.601562 0)"/>
      <use xlink:href="#ArialNarrow-73" transform="translate(257.324219 0)"/>
      <use xlink:href="#ArialNarrow-20" transform="translate(298.339844 0)"/>
      <use xlink:href="#ArialNarrow-64" transform="translate(321.142578 0)"/>
      <use xlink:href="#ArialNarrow-7a" transform="translate(366.748047 0)"/>
     </g>
    </g>
   </g>
   <g id="matplotlib.axis_2"/>
   <g id="line2d_4">
    <path d="M 102.878836 137.194688 
L 223.193622 137.194688 
" clip-path="url(#pa862def59b)" style="fill: none; stroke: #1f77b4; stroke-width: 2; stroke-linecap: square"/>
   </g>
   <g id="line2d_5">
    <path d="M 20.284531 248.074688 
L 20.284531 26.314687 
" clip-path="url(#pa862def59b)" style="fill: none; stroke-dasharray: 5.55,2.4; stroke-dashoffset: 0; stroke: #000000; stroke-width: 1.5"/>
   </g>
   <g id="line2d_6">
    <path d="M 188.483115 248.074688 
L 188.483115 26.314687 
" clip-path="url(#pa862def59b)" style="fill: none; stroke-dasharray: 5.55,2.4; stroke-dashoffset: 0; stroke: #000000; stroke-width: 1.5"/>
   </g>
   <g id="patch_3">
    <path d="M 10.139077 248.074688 
L 10.139077 26.314688 
" style="fill: none; stroke: #000000; stroke-width: 0.8; stroke-linejoin: miter; stroke-linecap: square"/>
   </g>
   <g id="patch_4">
    <path d="M 233.339077 248.074688 
L 233.339077 26.314688 
" style="fill: none; stroke: #000000; stroke-width: 0.8; stroke-linejoin: miter; stroke-linecap: square"/>
   </g>
   <g id="patch_5">
    <path d="M 10.139077 248.074688 
L 233.339077 248.074688 
" style="fill: none; stroke: #000000; stroke-width: 0.8; stroke-linejoin: miter; stroke-linecap: square"/>
   </g>
   <g id="patch_6">
    <path d="M 10.139077 26.314687 
L 233.339077 26.314687 
" style="fill: none; stroke: #000000; stroke-width: 0.8; stroke-linejoin: miter; stroke-linecap: square"/>
   </g>
   <g id="text_5">
    <!-- TOST equivalence test -->
    <g transform="translate(46.905483 20.314687) scale(0.18 -0.18)">
     <defs>
      <path id="ArialNarrow-54" d="M 1369 0 
L 1369 4041 
L 131 4041 
L 131 4581 
L 3109 4581 
L 3109 4041 
L 1866 4041 
L 1866 0 
L 1369 0 
z
" transform="scale(0.015625)"/>
      <path id="ArialNarrow-4f" d="M 266 2231 
Q 266 3403 781 4033 
Q 1297 4663 2066 4663 
Q 2563 4663 2972 4381 
Q 3381 4100 3620 3564 
Q 3859 3028 3859 2288 
Q 3859 1269 3397 628 
Q 2888 -78 2063 -78 
Q 1231 -78 725 647 
Q 266 1303 266 2231 
z
M 778 2222 
Q 778 1375 1151 908 
Q 1525 441 2059 441 
Q 2606 441 2976 912 
Q 3347 1384 3347 2300 
Q 3347 2891 3156 3356 
Q 3009 3713 2714 3927 
Q 2419 4141 2069 4141 
Q 1506 4141 1142 3672 
Q 778 3203 778 2222 
z
" transform="scale(0.015625)"/>
      <path id="ArialNarrow-53" d="M 238 1472 
L 706 1522 
Q 744 1144 876 933 
Q 1009 722 1256 594 
Q 1503 466 1813 466 
Q 2256 466 2501 683 
Q 2747 900 2747 1247 
Q 2747 1450 2658 1601 
Q 2569 1753 2389 1850 
Q 2209 1947 1613 2122 
Q 1081 2278 856 2437 
Q 631 2597 506 2842 
Q 381 3088 381 3397 
Q 381 3953 740 4306 
Q 1100 4659 1709 4659 
Q 2128 4659 2442 4493 
Q 2756 4328 2929 4018 
Q 3103 3709 3116 3291 
L 2638 3247 
Q 2600 3694 2370 3909 
Q 2141 4125 1725 4125 
Q 1303 4125 1081 3936 
Q 859 3747 859 3447 
Q 859 3169 1022 3016 
Q 1184 2863 1753 2706 
Q 2309 2553 2534 2441 
Q 2878 2266 3053 1980 
Q 3228 1694 3228 1297 
Q 3228 903 3043 579 
Q 2859 256 2542 87 
Q 2225 -81 1778 -81 
Q 1081 -81 667 337 
Q 253 756 238 1472 
z
" transform="scale(0.015625)"/>
      <path id="ArialNarrow-71" d="M 2072 -1272 
L 2072 353 
Q 1963 163 1767 44 
Q 1572 -75 1375 -75 
Q 888 -75 531 387 
Q 175 850 175 1691 
Q 175 2422 475 2908 
Q 775 3394 1325 3394 
Q 1578 3394 1775 3264 
Q 1972 3134 2116 2875 
L 2116 3319 
L 2531 3319 
L 2531 -1272 
L 2072 -1272 
z
M 647 1669 
Q 647 1022 872 705 
Q 1097 388 1409 388 
Q 1688 388 1903 692 
Q 2119 997 2119 1600 
Q 2119 2284 1892 2617 
Q 1666 2950 1353 2950 
Q 1069 2950 858 2639 
Q 647 2328 647 1669 
z
" transform="scale(0.015625)"/>
      <path id="ArialNarrow-75" d="M 2122 0 
L 2122 488 
Q 1963 206 1747 65 
Q 1531 -75 1259 -75 
Q 938 -75 709 98 
Q 481 272 404 537 
Q 328 803 328 1263 
L 328 3319 
L 788 3319 
L 788 1478 
Q 788 966 839 792 
Q 891 619 1030 514 
Q 1169 409 1347 409 
Q 1678 409 1891 681 
Q 2072 916 2072 1541 
L 2072 3319 
L 2534 3319 
L 2534 0 
L 2122 0 
z
" transform="scale(0.015625)"/>
      <path id="ArialNarrow-69" d="M 338 3934 
L 338 4581 
L 797 4581 
L 797 3934 
L 338 3934 
z
M 338 0 
L 338 3319 
L 797 3319 
L 797 0 
L 338 0 
z
" transform="scale(0.015625)"/>
      <path id="ArialNarrow-76" d="M 1100 0 
L 66 3319 
L 553 3319 
L 1138 1331 
Q 1238 994 1313 663 
Q 1372 925 1481 1294 
L 2088 3319 
L 2563 3319 
L 1531 0 
L 1100 0 
z
" transform="scale(0.015625)"/>
      <path id="ArialNarrow-61" d="M 2113 409 
Q 1881 169 1631 47 
Q 1381 -75 1113 -75 
Q 688 -75 434 181 
Q 181 438 181 872 
Q 181 1159 300 1381 
Q 419 1603 625 1728 
Q 831 1853 1250 1913 
Q 1813 1994 2075 2106 
L 2078 2250 
Q 2078 2591 1956 2728 
Q 1784 2928 1428 2928 
Q 1106 2928 947 2795 
Q 788 2663 713 2297 
L 259 2372 
Q 356 2906 651 3150 
Q 947 3394 1497 3394 
Q 1925 3394 2169 3233 
Q 2413 3072 2477 2834 
Q 2541 2597 2541 2141 
L 2541 1391 
Q 2541 603 2570 398 
Q 2600 194 2688 0 
L 2206 0 
Q 2134 172 2113 409 
z
M 2075 1666 
Q 1822 1541 1322 1453 
Q 1031 1403 915 1339 
Q 800 1275 736 1158 
Q 672 1041 672 888 
Q 672 650 819 508 
Q 966 366 1225 366 
Q 1472 366 1673 494 
Q 1875 622 1975 836 
Q 2075 1050 2075 1459 
L 2075 1666 
z
" transform="scale(0.015625)"/>
      <path id="ArialNarrow-6c" d="M 325 0 
L 325 4581 
L 784 4581 
L 784 0 
L 325 0 
z
" transform="scale(0.015625)"/>
      <path id="ArialNarrow-63" d="M 2122 1216 
L 2575 1144 
Q 2497 550 2183 237 
Q 1869 -75 1428 -75 
Q 894 -75 548 364 
Q 203 803 203 1663 
Q 203 2528 551 2961 
Q 900 3394 1447 3394 
Q 1869 3394 2158 3131 
Q 2447 2869 2528 2344 
L 2081 2259 
Q 2016 2597 1853 2764 
Q 1691 2931 1463 2931 
Q 1122 2931 898 2629 
Q 675 2328 675 1672 
Q 675 994 889 691 
Q 1103 388 1438 388 
Q 1700 388 1886 589 
Q 2072 791 2122 1216 
z
" transform="scale(0.015625)"/>
      <path id="ArialNarrow-74" d="M 1366 503 
L 1428 6 
Q 1238 -44 1084 -44 
Q 844 -44 697 51 
Q 550 147 495 312 
Q 441 478 441 972 
L 441 2881 
L 103 2881 
L 103 3319 
L 441 3319 
L 441 4141 
L 900 4478 
L 900 3319 
L 1366 3319 
L 1366 2881 
L 900 2881 
L 900 941 
Q 900 672 941 594 
Q 1000 481 1163 481 
Q 1241 481 1366 503 
z
" transform="scale(0.015625)"/>
     </defs>
     <use xlink:href="#ArialNarrow-54"/>
     <use xlink:href="#ArialNarrow-4f" transform="translate(48.722656 0)"/>
     <use xlink:href="#ArialNarrow-53" transform="translate(112.541016 0)"/>
     <use xlink:href="#ArialNarrow-54" transform="translate(167.228516 0)"/>
     <use xlink:href="#ArialNarrow-20" transform="translate(215.951172 0)"/>
     <use xlink:href="#ArialNarrow-65" transform="translate(238.753906 0)"/>
     <use xlink:href="#ArialNarrow-71" transform="translate(284.359375 0)"/>
     <use xlink:href="#ArialNarrow-75" transform="translate(329.964844 0)"/>
     <use xlink:href="#ArialNarrow-69" transform="translate(375.570312 0)"/>
     <use xlink:href="#ArialNarrow-76" transform="translate(393.783203 0)"/>
     <use xlink:href="#ArialNarrow-61" transform="translate(434.798828 0)"/>
     <use xlink:href="#ArialNarrow-6c" transform="translate(480.404297 0)"/>
     <use xlink:href="#ArialNarrow-65" transform="translate(498.617188 0)"/>
     <use xlink:href="#ArialNarrow-6e" transform="translate(544.222656 0)"/>
     <use xlink:href="#ArialNarrow-63" transform="translate(589.828125 0)"/>
     <use xlink:href="#ArialNarrow-65" transform="translate(630.84375 0)"/>
     <use xlink:href="#ArialNarrow-20" transform="translate(676.449219 0)"/>
     <use xlink:href="#ArialNarrow-74" transform="translate(699.251953 0)"/>
     <use xlink:href="#ArialNarrow-65" transform="translate(722.054688 0)"/>
     <use xlink:href="#ArialNarrow-73" transform="translate(767.660156 0)"/>
     <use xlink:href="#ArialNarrow-74" transform="translate(808.675781 0)"/>
    </g>
   </g>
  </g>
 </g>
 <defs>
  <clipPath id="pa862def59b">
   <rect x="10.139077" y="26.314687" width="223.2" height="221.76"/>
  </clipPath>
 </defs>
</svg>
